<?xml version="1.0" encoding="UTF-8" ?>
<!DOCTYPE svg PUBLIC "-//W3C//DTD SVG 1.1//EN" "http://www.w3.org/Graphics/SVG/1.1/DTD/svg11.dtd">
<svg width="1280pt" height="908pt" viewBox="0 0 1280 908" version="1.1" xmlns="http://www.w3.org/2000/svg">
<g id="#000000fe">
<path fill="#000000" stroke="#000000" stroke-width="0.09375" opacity="1.00" d=" M 1045.59 41.37 C 1053.84 40.22 1062.07 43.69 1068.74 48.25 C 1073.65 54.01 1077.08 60.80 1080.28 67.61 C 1084.71 77.61 1085.05 89.06 1082.68 99.65 C 1080.46 114.36 1072.08 127.37 1062.20 138.16 C 1057.55 143.46 1050.54 145.59 1044.04 147.68 C 1055.45 155.87 1066.68 164.41 1076.81 174.16 C 1081.73 178.74 1084.13 185.21 1086.68 191.28 C 1090.09 193.58 1094.22 194.81 1097.29 197.66 C 1100.56 200.77 1104.13 204.01 1105.68 208.40 C 1107.18 212.70 1107.89 217.28 1107.97 221.84 C 1107.45 226.25 1104.22 229.73 1103.04 233.94 C 1108.93 243.01 1115.57 251.63 1120.97 261.03 C 1126.70 271.33 1128.17 283.22 1131.64 294.33 C 1135.03 304.15 1145.46 309.33 1149.00 319.10 C 1150.68 323.05 1150.72 327.39 1151.35 331.58 C 1152.56 342.33 1155.44 352.92 1154.95 363.82 C 1153.62 375.81 1148.94 387.08 1143.95 397.96 C 1141.48 403.68 1138.12 409.30 1133.04 413.07 C 1122.82 421.00 1114.38 430.90 1104.20 438.85 C 1103.67 453.54 1104.07 468.25 1103.98 482.95 C 1103.65 492.99 1107.35 502.47 1110.05 511.98 C 1113.00 524.41 1111.75 537.32 1112.02 549.98 C 1112.26 565.77 1111.68 581.56 1110.41 597.30 C 1109.23 607.66 1105.00 617.37 1103.59 627.69 C 1102.16 642.28 1099.26 656.90 1093.44 670.42 C 1091.80 674.36 1089.35 677.97 1088.08 682.06 C 1088.56 684.84 1089.93 687.35 1091.04 689.92 C 1093.95 696.54 1097.62 703.07 1103.24 707.79 C 1107.01 710.35 1111.77 710.51 1116.01 711.95 C 1123.74 714.07 1130.39 719.01 1138.24 720.83 C 1146.18 723.15 1154.56 723.26 1162.54 725.49 C 1171.58 727.82 1181.21 729.51 1188.98 735.06 C 1195.57 740.02 1202.09 745.18 1207.74 751.23 C 1213.60 757.34 1215.55 765.90 1215.96 774.09 C 1216.37 778.30 1215.30 782.62 1212.78 786.03 C 1210.20 788.88 1206.18 788.44 1202.84 789.53 C 1200.70 791.21 1198.98 793.38 1196.78 794.96 C 1193.82 796.46 1190.33 796.62 1187.12 796.84 C 1183.96 797.01 1181.45 794.85 1178.87 793.38 C 1175.50 794.47 1172.30 796.44 1168.58 795.95 C 1160.10 795.81 1151.04 797.38 1143.04 793.92 C 1139.26 792.36 1136.95 788.83 1133.81 786.43 C 1129.32 787.35 1124.69 788.95 1120.19 787.08 C 1109.53 784.42 1099.52 779.80 1089.42 775.59 C 1082.39 772.47 1075.05 770.10 1067.96 767.15 C 1057.97 762.49 1051.28 753.30 1046.10 743.92 C 1038.96 732.42 1040.37 717.92 1034.00 706.09 C 1032.74 703.39 1030.63 701.21 1029.38 698.53 C 1029.28 697.03 1029.40 695.54 1029.41 694.06 C 1022.15 691.42 1014.36 689.08 1006.55 690.34 C 999.47 691.95 992.73 694.70 985.85 696.91 C 976.44 699.82 966.75 701.66 957.27 704.27 C 926.79 711.81 895.05 705.32 864.18 709.21 C 847.30 711.32 830.26 712.26 813.54 715.49 C 808.36 716.03 804.05 719.08 799.94 722.00 C 792.85 727.13 785.69 732.68 777.16 735.15 C 761.94 739.06 746.10 737.47 730.60 738.25 C 728.67 742.48 727.22 746.91 725.00 751.02 C 722.85 754.99 720.98 759.19 720.69 763.79 C 719.18 776.90 720.73 790.16 719.31 803.29 C 718.79 813.57 715.51 823.90 708.80 831.86 C 706.94 834.16 703.79 835.28 700.86 834.69 C 699.20 833.92 695.88 832.38 694.23 831.61 C 692.10 839.11 688.33 847.21 680.54 850.20 C 675.76 852.30 670.87 850.51 666.24 849.23 C 663.99 852.68 662.95 857.44 658.73 859.13 C 654.64 861.72 649.29 861.63 645.16 859.21 C 640.83 857.86 639.24 853.33 635.90 850.79 C 629.73 849.20 623.14 847.05 618.94 842.01 C 612.91 833.41 611.88 822.61 610.57 812.50 C 609.32 806.64 612.08 800.96 615.19 796.22 C 620.71 790.08 628.03 785.99 635.32 782.33 C 642.81 778.60 651.70 778.68 658.85 774.12 C 662.29 771.94 664.90 767.94 664.01 763.67 C 664.31 756.19 663.38 748.77 662.58 741.37 C 661.48 730.78 662.41 720.13 661.91 709.54 L 660.96 707.29 C 652.12 699.02 642.83 691.26 633.79 683.21 C 628.33 678.07 624.59 671.55 621.11 665.01 C 619.94 663.21 619.18 660.58 616.84 659.98 C 608.71 657.42 600.28 656.13 592.07 653.98 C 582.99 651.77 574.46 647.83 565.44 645.45 C 558.24 643.55 550.76 643.23 543.38 642.63 C 527.04 641.60 510.60 641.26 494.41 638.62 C 481.34 635.85 468.51 632.00 455.34 629.66 C 426.15 624.24 396.72 620.27 367.24 616.78 C 345.66 613.20 323.83 611.51 302.12 608.87 C 281.11 606.46 259.86 606.32 238.79 607.96 C 212.81 608.41 186.77 607.89 160.93 605.09 C 148.35 603.79 136.02 600.96 123.67 598.34 C 109.87 594.88 96.41 590.02 82.34 587.64 C 72.57 585.75 62.52 585.62 52.85 583.20 C 49.79 582.38 46.29 581.12 45.01 577.93 C 43.35 574.71 45.57 570.88 48.42 569.22 C 60.25 565.23 72.67 563.51 85.02 561.99 C 97.53 560.32 110.19 561.39 122.76 560.81 C 145.63 558.93 168.20 554.63 190.99 552.00 C 204.08 550.08 217.34 549.86 230.49 548.52 C 260.86 544.69 291.71 544.97 322.05 548.92 C 332.02 549.87 341.68 552.53 351.47 554.53 C 365.17 557.34 378.85 560.32 392.70 562.33 C 415.42 565.06 438.51 565.72 460.83 571.18 C 471.44 573.53 482.15 575.42 492.88 577.11 C 514.79 580.73 537.07 580.93 559.15 582.81 C 572.21 583.85 584.91 587.47 597.90 589.02 C 596.63 578.19 593.51 567.16 596.10 556.29 C 599.96 542.93 607.07 530.70 610.08 517.06 C 612.64 506.11 615.97 495.36 618.31 484.36 C 621.15 471.89 619.41 458.99 620.28 446.35 C 621.39 434.83 623.25 423.26 627.40 412.40 C 633.31 395.70 640.49 379.44 648.81 363.80 C 657.69 346.71 663.48 328.25 671.98 310.99 C 676.73 301.42 680.45 291.20 681.51 280.51 C 683.41 269.39 681.30 257.23 687.01 246.99 C 692.24 237.48 699.67 229.39 704.88 219.86 C 709.74 211.34 713.21 202.01 719.08 194.08 C 726.15 184.33 733.80 174.19 745.02 168.98 C 747.54 167.50 750.62 166.93 752.88 165.03 C 751.85 162.11 750.40 159.34 749.62 156.34 C 747.35 147.86 747.84 138.96 748.06 130.28 C 748.98 123.05 751.13 115.73 756.06 110.15 C 760.26 106.87 764.84 103.71 770.25 102.86 C 778.01 101.38 785.97 101.99 793.83 101.96 C 803.79 101.91 813.81 103.45 823.17 106.93 C 825.14 107.46 827.86 108.91 829.16 106.26 C 838.94 96.29 851.22 88.98 864.39 84.42 C 873.95 80.35 884.38 79.16 894.68 78.68 C 912.89 76.69 930.97 80.55 949.16 80.88 C 964.19 80.84 978.83 84.92 992.89 89.91 C 995.26 85.17 996.48 79.87 999.38 75.39 C 1007.22 64.64 1017.66 56.16 1028.38 48.41 C 1033.59 45.01 1039.33 42.17 1045.59 41.37 M 1046.45 51.54 C 1044.66 51.74 1042.60 51.78 1041.26 53.13 C 1033.83 60.86 1027.82 70.02 1024.16 80.12 C 1020.63 89.61 1017.19 99.79 1019.59 110.02 C 1021.18 114.00 1024.41 117.05 1026.24 120.92 C 1026.81 122.06 1026.93 123.40 1026.30 124.55 C 1021.30 125.70 1016.70 123.09 1013.20 119.82 C 1009.61 113.99 1008.14 107.14 1009.03 100.33 C 1009.12 89.96 1013.50 80.52 1017.04 71.01 C 1009.00 76.42 1004.86 85.85 1001.99 94.76 C 1003.41 97.54 1007.70 99.94 1005.38 103.44 C 1002.17 104.40 998.82 105.13 995.49 104.80 C 992.59 103.34 990.73 100.39 987.75 99.07 C 983.32 96.93 978.51 95.65 973.85 94.16 C 958.15 89.94 941.74 91.31 925.75 89.24 C 911.78 87.63 897.69 87.92 883.77 89.68 C 866.28 92.11 850.19 100.74 836.89 112.10 C 840.65 115.72 845.34 118.25 848.76 122.25 C 854.83 129.00 860.78 136.00 865.07 144.04 C 866.26 146.06 866.43 148.83 864.36 150.35 C 862.70 152.61 859.39 152.36 857.41 150.70 C 854.79 147.21 853.54 142.68 850.05 139.87 C 851.27 143.31 852.90 146.60 853.89 150.13 C 855.85 157.94 858.68 165.77 858.13 173.96 C 858.14 183.08 857.58 192.30 855.15 201.14 C 854.00 205.16 851.30 208.52 848.75 211.73 C 847.90 212.28 847.02 212.73 846.09 213.07 C 845.08 211.87 843.77 210.57 844.03 208.86 C 844.55 199.42 848.38 190.42 848.08 180.89 C 848.70 169.99 846.69 159.16 843.08 148.91 C 838.63 137.35 829.32 127.57 817.56 123.43 C 814.32 122.26 810.76 122.02 807.74 120.36 C 805.07 118.76 806.79 115.52 806.77 113.01 C 800.66 111.43 794.21 112.12 788.00 111.88 C 779.86 112.03 771.17 111.36 763.95 115.85 C 761.03 119.93 758.60 124.45 758.28 129.56 C 757.86 138.09 757.18 146.94 759.67 155.24 C 762.56 162.45 767.72 168.44 772.85 174.16 C 781.28 183.58 789.63 193.36 795.15 204.84 C 799.28 213.65 799.99 223.56 803.34 232.63 C 806.40 240.72 815.03 244.48 820.37 250.86 C 824.11 252.89 821.07 259.73 816.55 256.54 C 809.82 254.94 804.22 250.30 799.32 245.64 C 791.57 236.48 791.26 224.13 787.85 213.18 C 782.01 197.48 769.53 185.83 758.99 173.29 C 752.10 176.74 744.61 179.54 739.15 185.17 C 734.34 190.10 729.98 195.48 726.24 201.26 C 719.66 212.69 714.27 224.84 706.65 235.66 C 702.96 240.99 698.92 246.09 695.64 251.69 C 692.51 258.08 692.96 265.35 692.30 272.23 C 691.27 283.47 689.99 294.96 685.35 305.38 C 679.42 318.83 673.21 332.16 667.87 345.87 C 661.87 361.03 654.09 375.39 647.09 390.08 C 639.20 407.99 631.69 426.55 630.17 446.24 C 629.60 460.92 631.12 475.91 627.26 490.27 C 623.55 504.19 620.50 518.31 616.04 532.02 C 613.22 540.35 608.99 548.15 606.54 556.60 C 603.64 564.78 605.94 573.46 607.00 581.73 C 607.81 588.79 613.81 593.64 615.57 600.36 C 615.82 604.15 613.95 607.97 615.20 611.73 C 618.51 623.74 619.90 636.22 623.87 648.06 C 625.05 651.89 628.17 654.56 630.62 657.57 C 633.56 661.96 633.33 667.82 637.15 671.72 C 643.78 679.48 651.93 685.69 659.45 692.55 C 666.40 698.62 672.73 705.67 681.02 710.00 C 689.77 714.84 699.42 717.63 708.68 721.30 C 715.38 724.23 722.50 726.07 729.67 727.49 C 736.65 728.41 743.76 728.07 750.81 727.99 C 760.22 727.40 770.04 727.49 778.94 723.92 C 787.07 719.71 793.94 713.46 801.79 708.77 C 805.37 706.86 809.45 706.23 813.37 705.35 C 826.62 702.98 840.02 701.67 853.42 700.46 C 861.98 699.73 870.46 697.98 879.09 698.03 C 895.68 697.78 912.29 698.21 928.90 697.98 C 938.40 697.88 947.87 696.46 957.06 694.03 C 968.82 690.93 980.75 688.34 992.24 684.28 C 999.94 681.56 1008.01 679.04 1016.30 680.11 C 1023.07 681.39 1029.57 683.81 1036.38 685.02 C 1046.23 685.43 1056.17 684.32 1065.70 681.72 C 1071.82 679.61 1079.32 677.70 1082.26 671.18 C 1085.83 663.28 1088.80 655.08 1090.57 646.57 C 1092.95 637.57 1092.55 628.10 1095.13 619.15 C 1097.08 611.02 1099.71 603.03 1100.78 594.72 C 1102.32 571.61 1102.20 548.42 1101.88 525.28 C 1101.88 512.62 1094.75 501.40 1094.11 488.84 C 1093.75 473.66 1093.91 458.47 1094.43 443.30 C 1075.83 447.71 1056.58 445.97 1037.75 444.35 C 1022.34 442.05 1006.74 436.62 995.30 425.66 C 991.75 421.91 997.87 415.55 1002.19 418.48 C 1006.48 420.84 1009.77 424.70 1014.19 426.91 C 1019.96 430.13 1026.44 431.56 1032.78 433.19 C 1042.97 435.69 1053.54 436.18 1063.99 436.09 C 1073.94 436.01 1084.07 435.67 1093.67 432.75 C 1101.16 429.40 1107.07 423.51 1112.76 417.75 C 1118.03 412.34 1124.07 407.74 1129.66 402.65 C 1131.25 401.12 1132.09 399.01 1133.11 397.09 C 1138.25 386.15 1143.91 375.05 1144.94 362.80 C 1145.44 352.54 1142.31 342.65 1141.44 332.51 C 1140.81 327.92 1140.62 323.08 1137.99 319.09 C 1134.22 313.57 1128.09 309.95 1125.10 303.87 C 1119.78 294.20 1119.24 282.85 1115.36 272.65 C 1112.77 265.48 1108.09 259.33 1103.99 253.00 C 1097.55 243.72 1091.11 234.43 1085.26 224.76 C 1081.94 219.15 1079.76 212.94 1078.23 206.63 C 1077.35 201.79 1077.42 196.79 1076.16 192.01 C 1074.67 187.81 1072.37 183.87 1069.22 180.71 C 1057.49 169.27 1043.55 160.44 1031.32 149.59 C 1029.30 147.79 1030.34 144.71 1032.27 143.31 C 1040.43 137.49 1051.98 136.72 1058.07 128.03 C 1068.00 116.49 1074.30 101.56 1074.07 86.21 C 1074.41 77.87 1071.06 70.02 1066.94 62.99 C 1064.81 58.98 1061.64 55.41 1057.65 53.22 C 1054.18 51.62 1050.21 51.12 1046.45 51.54 M 250.53 556.50 C 236.75 557.58 223.02 559.28 209.23 560.22 C 191.05 561.65 173.01 564.46 154.94 566.92 C 147.31 568.03 139.72 569.46 132.01 570.00 C 114.30 571.86 96.38 569.82 78.76 572.78 C 75.37 573.97 70.75 572.72 67.72 574.96 C 70.95 576.51 74.62 576.40 78.10 576.96 C 95.46 578.80 111.81 585.22 128.66 589.36 C 135.62 590.75 142.60 592.02 149.55 593.46 C 162.13 595.89 174.98 596.11 187.71 597.26 C 197.10 598.26 206.56 597.99 216.00 598.02 C 227.47 597.95 238.97 598.38 250.42 597.40 C 270.37 596.10 290.38 597.28 310.19 599.80 C 323.93 601.68 337.83 602.21 351.53 604.48 C 387.92 609.41 424.48 613.41 460.54 620.47 C 471.97 622.73 483.18 625.99 494.58 628.45 C 510.35 631.41 526.46 631.51 542.43 632.57 C 552.37 633.28 562.45 633.97 572.03 636.95 C 577.92 638.37 583.32 641.25 589.15 642.87 C 596.95 644.86 604.75 647.26 612.81 648.05 C 610.53 635.38 607.54 622.87 604.71 610.33 C 603.74 606.61 603.18 602.76 601.51 599.28 C 596.59 598.39 591.56 598.35 586.66 597.41 C 576.01 595.55 565.46 593.05 554.65 592.31 C 526.85 590.76 498.84 589.53 471.57 583.41 C 458.28 581.12 445.22 577.42 431.75 576.27 C 422.03 575.10 412.26 574.50 402.54 573.49 C 376.86 570.77 351.75 564.57 326.50 559.47 C 301.35 556.05 275.86 555.10 250.53 556.50 M 1079.19 687.66 C 1066.58 692.12 1053.39 696.14 1039.84 694.68 L 1039.34 695.38 C 1041.58 699.67 1044.25 703.77 1045.66 708.47 C 1049.21 717.30 1049.53 727.01 1053.16 735.81 C 1055.92 741.44 1059.28 746.82 1063.41 751.55 C 1067.64 756.07 1073.42 758.72 1079.15 760.84 C 1090.27 764.74 1100.91 769.83 1111.87 774.15 C 1117.24 775.92 1122.75 778.13 1128.56 777.50 C 1128.94 773.26 1128.21 768.86 1125.72 765.35 C 1121.38 759.92 1115.14 756.49 1110.26 751.67 C 1107.92 749.19 1109.34 743.69 1113.14 744.00 C 1119.12 743.35 1123.40 748.15 1127.77 751.30 C 1135.61 758.78 1139.92 769.18 1142.02 779.65 C 1142.94 783.45 1147.26 784.93 1150.62 785.91 C 1157.83 786.47 1165.14 786.09 1172.39 785.65 C 1173.98 783.42 1171.93 780.90 1171.01 778.92 C 1167.92 773.02 1163.55 767.84 1158.55 763.49 C 1157.05 761.94 1154.81 760.74 1154.35 758.46 C 1152.59 754.80 1155.84 751.70 1159.04 751.12 C 1166.73 753.89 1173.15 759.59 1177.83 766.20 C 1181.76 771.66 1182.16 778.50 1184.24 784.67 C 1185.78 787.99 1189.97 787.22 1192.73 785.82 C 1194.69 783.77 1195.34 780.48 1194.19 777.87 C 1191.59 771.49 1188.35 765.31 1183.96 760.00 C 1182.47 757.66 1179.64 755.37 1180.05 752.27 C 1180.41 750.46 1182.00 749.16 1183.49 748.22 C 1185.72 747.48 1188.15 748.61 1189.66 750.30 C 1196.56 758.10 1201.80 767.26 1205.49 777.01 C 1206.51 769.09 1204.02 760.40 1197.71 755.20 C 1190.27 748.86 1183.15 741.09 1173.34 738.66 C 1166.06 736.86 1158.87 734.71 1151.48 733.48 C 1145.32 732.35 1139.04 731.79 1133.05 730.00 C 1126.07 727.46 1119.75 723.22 1112.48 721.50 C 1106.69 720.23 1100.84 718.49 1095.94 715.06 C 1088.12 707.60 1082.97 697.74 1079.89 687.47 L 1079.19 687.66 M 671.93 717.21 C 671.68 724.93 672.02 732.66 672.49 740.39 C 673.30 748.46 674.49 756.53 673.96 764.68 C 674.66 773.79 667.75 781.60 659.82 785.01 C 650.13 788.29 639.51 789.88 631.07 796.06 C 626.34 799.18 620.81 803.02 620.27 809.14 C 620.44 815.11 621.98 820.96 623.06 826.82 C 623.56 831.84 626.36 836.85 631.11 838.93 C 629.68 831.93 627.58 825.04 627.06 817.90 C 627.05 814.69 626.74 811.21 628.62 808.48 C 631.29 807.11 635.61 807.24 636.70 810.50 C 639.22 823.47 640.33 837.22 647.16 848.85 C 648.80 850.42 651.25 851.39 653.53 850.86 C 657.44 848.77 656.87 843.39 657.82 839.75 C 657.69 833.84 655.74 828.21 654.43 822.52 C 653.98 819.46 652.04 815.89 653.86 812.88 C 654.90 809.91 659.17 811.25 661.28 810.81 C 667.77 818.43 666.63 829.05 669.89 837.94 C 671.17 842.34 677.27 841.93 679.82 838.94 C 685.26 832.91 685.29 824.27 687.66 816.87 C 688.28 814.33 690.65 812.52 693.15 812.08 C 695.15 812.05 697.04 813.25 698.30 814.75 C 700.22 817.59 700.61 821.29 702.83 823.97 C 705.56 819.17 708.07 814.10 708.54 808.51 C 712.35 789.41 706.65 769.30 713.80 750.79 C 715.61 745.63 719.61 741.45 720.94 736.14 C 707.98 731.55 694.90 727.20 682.21 721.86 C 678.73 720.41 675.66 717.89 671.93 717.21 Z" />
<path fill="#000000" stroke="#000000" stroke-width="0.09375" opacity="1.00" d=" M 906.70 220.43 C 913.37 219.94 920.28 219.20 926.87 220.92 C 939.00 223.19 950.39 230.80 955.94 241.99 C 958.20 246.72 961.54 251.10 961.90 256.52 C 962.00 262.33 960.56 268.30 957.00 272.98 C 953.00 278.70 946.88 282.41 941.06 285.98 C 934.98 289.99 927.39 290.35 920.36 289.95 C 911.76 287.69 903.00 283.77 897.35 276.64 C 892.09 269.60 890.69 260.45 890.90 251.87 C 891.10 244.23 889.87 235.93 894.04 229.05 C 896.17 224.04 901.37 220.86 906.70 220.43 M 919.67 238.23 C 916.97 238.75 915.22 241.70 914.95 244.25 C 913.66 248.10 916.75 251.15 920.03 252.04 C 922.76 251.44 924.99 249.43 926.83 247.41 C 927.21 244.28 927.25 240.28 924.64 238.10 C 923.40 238.13 920.91 238.20 919.67 238.23 Z" />
<path fill="#000000" stroke="#000000" stroke-width="0.09375" opacity="1.00" d=" M 1206.40 326.27 C 1208.75 325.36 1211.76 326.68 1210.97 329.58 C 1208.82 331.95 1206.52 334.23 1203.74 335.83 C 1193.23 341.74 1182.32 347.17 1173.12 355.06 C 1170.83 356.88 1168.83 359.06 1166.34 360.61 C 1163.26 362.06 1160.70 359.89 1159.27 357.58 C 1158.41 355.64 1160.18 353.73 1161.21 352.30 C 1167.87 344.98 1176.68 340.21 1184.94 334.96 C 1191.50 330.82 1198.66 327.49 1206.40 326.27 Z" />
<path fill="#000000" stroke="#000000" stroke-width="0.09375" opacity="1.00" d=" M 787.67 335.33 C 790.66 333.94 793.88 335.01 794.86 338.10 C 798.14 343.79 801.09 349.68 804.99 355.00 C 815.82 371.77 832.75 384.72 852.14 389.84 C 862.42 393.23 873.39 393.52 884.12 393.96 C 899.06 394.45 914.78 392.05 928.96 398.22 C 929.34 399.44 928.94 400.31 927.78 400.83 C 914.73 405.56 900.60 403.65 887.04 404.04 C 869.29 404.26 851.02 402.03 834.97 394.03 C 824.95 389.34 815.74 382.91 807.97 375.02 C 799.82 365.87 793.03 355.59 787.06 344.92 C 786.10 342.88 784.72 340.66 785.26 338.33 C 785.75 337.19 786.22 335.54 787.67 335.33 Z" />
<path fill="#000000" stroke="#000000" stroke-width="0.09375" opacity="1.00" d=" M 921.67 346.45 C 947.29 344.72 973.13 347.77 998.00 354.01 C 1011.26 357.33 1024.67 360.46 1037.36 365.64 C 1041.71 367.45 1046.37 368.55 1050.53 370.80 C 1051.41 373.66 1051.71 377.51 1048.46 378.82 C 1044.01 379.59 1040.04 377.43 1036.09 375.88 C 1022.18 370.18 1007.59 366.40 992.97 363.05 C 971.17 357.73 948.64 356.21 926.27 355.81 C 920.74 354.92 914.83 354.59 909.81 351.96 C 909.87 350.85 910.26 349.88 911.00 349.05 C 914.29 347.34 918.06 347.05 921.67 346.45 Z" />
<path fill="#000000" stroke="#000000" stroke-width="0.09375" opacity="1.00" d=" M 1204.59 355.50 C 1208.15 354.48 1211.99 355.20 1215.08 357.13 C 1214.85 361.20 1209.84 362.25 1207.15 364.24 C 1197.15 368.36 1186.89 371.83 1176.90 375.94 C 1172.92 377.40 1168.89 379.84 1164.49 378.82 C 1162.79 377.90 1162.17 375.79 1161.98 374.01 C 1161.61 371.70 1164.01 370.50 1165.72 369.64 C 1174.88 365.60 1184.35 362.32 1193.68 358.71 C 1197.22 357.36 1200.80 355.98 1204.59 355.50 Z" />
<path fill="#000000" stroke="#000000" stroke-width="0.09375" opacity="1.00" d=" M 1117.30 364.40 C 1123.27 364.65 1130.62 366.87 1132.21 373.53 C 1134.99 379.72 1131.52 386.00 1127.59 390.68 C 1119.58 398.99 1108.79 405.69 1096.80 405.08 C 1088.25 405.55 1078.97 403.41 1072.72 397.27 C 1068.64 393.59 1068.90 387.58 1068.94 382.59 C 1069.78 376.32 1075.21 369.64 1082.26 371.00 C 1089.77 370.42 1096.83 373.83 1104.32 373.80 C 1107.28 370.20 1109.18 364.60 1114.84 364.76 L 1117.30 364.40 M 1117.28 374.21 C 1113.18 375.75 1112.64 380.97 1109.75 383.80 C 1106.70 385.94 1102.75 383.81 1099.56 383.59 C 1092.97 382.40 1086.37 379.86 1079.59 381.52 C 1078.58 384.45 1078.42 387.89 1079.70 390.78 C 1086.50 395.76 1095.24 395.52 1103.21 394.45 C 1106.78 393.82 1110.03 391.98 1113.04 389.99 C 1116.65 387.32 1120.61 384.54 1122.56 380.33 C 1124.92 375.91 1120.40 374.22 1117.28 374.21 Z" />
<path fill="#000000" stroke="#000000" stroke-width="0.09375" opacity="1.00" d=" M 947.26 376.42 C 951.89 376.04 956.48 376.80 961.14 376.86 C 975.70 377.14 990.22 378.18 1004.74 379.22 C 1017.10 380.70 1029.44 382.43 1041.77 384.14 C 1044.60 384.77 1048.33 384.52 1049.89 387.45 C 1051.69 391.30 1047.66 395.30 1043.99 394.70 C 1031.38 393.28 1018.87 391.15 1006.28 389.69 C 993.48 388.80 980.70 387.26 967.87 387.08 C 957.27 386.81 946.40 387.17 936.16 383.97 C 934.57 383.54 933.40 382.39 932.69 380.96 C 933.57 379.19 935.64 378.79 937.36 378.27 C 940.61 377.45 943.91 376.77 947.26 376.42 Z" />
<path fill="#000000" stroke="#000000" stroke-width="0.09375" opacity="1.00" d=" M 1162.75 386.08 C 1179.76 386.09 1197.71 384.92 1213.92 391.19 C 1214.73 393.04 1212.72 394.05 1211.24 394.46 C 1197.72 397.76 1183.73 395.74 1170.02 396.08 C 1167.33 394.99 1163.45 397.38 1161.19 394.94 C 1160.13 393.80 1159.38 392.42 1158.80 391.01 C 1159.63 389.08 1160.67 386.93 1162.75 386.08 Z" />
<path fill="#000000" stroke="#000000" stroke-width="0.09375" opacity="1.00" d=" M 1003.50 400.43 C 1017.16 399.73 1030.88 399.82 1044.57 400.04 C 1047.84 401.58 1047.69 405.44 1046.70 408.49 C 1044.32 409.82 1041.19 410.10 1038.63 409.96 C 1024.43 410.35 1010.16 409.21 996.04 411.07 C 982.77 412.43 969.63 415.34 957.19 420.16 C 950.26 422.53 943.50 426.04 936.00 425.89 C 933.59 426.87 930.12 426.05 929.69 423.32 C 938.55 415.28 950.29 412.17 961.29 408.32 C 974.80 403.34 989.31 402.11 1003.50 400.43 Z" />
<path fill="#000000" stroke="#000000" stroke-width="0.09375" opacity="1.00" d=" M 920.08 491.04 C 922.82 491.38 924.99 493.31 927.16 494.85 C 933.10 499.39 939.11 503.91 945.93 507.06 C 955.10 511.43 964.08 516.48 974.00 519.00 C 984.21 522.38 995.19 524.53 1004.21 530.73 C 1008.04 533.26 1008.98 538.75 1006.91 542.72 C 1003.96 544.89 1000.29 545.55 996.92 546.79 C 1000.97 549.60 1007.08 551.25 1008.69 556.52 C 1010.61 560.06 1007.40 563.14 1004.30 563.71 C 999.42 564.51 994.59 563.47 990.04 561.84 C 991.05 563.58 992.24 565.26 992.95 567.17 C 993.06 570.60 989.57 573.48 986.24 572.85 C 983.56 572.09 981.23 570.47 978.82 569.18 C 973.22 565.75 967.00 563.63 961.03 560.98 C 964.67 564.67 968.99 567.82 972.12 572.02 C 974.44 575.36 970.98 580.23 967.18 579.85 C 964.50 578.72 962.23 576.73 959.84 575.17 C 953.67 570.47 946.48 567.40 939.25 564.76 C 926.21 559.69 912.61 555.73 900.59 548.42 C 895.23 544.92 889.53 541.43 886.04 535.91 C 881.64 529.47 878.67 522.22 876.04 514.93 C 875.57 513.21 874.58 511.29 875.54 509.56 C 876.59 505.76 883.37 505.77 884.60 509.43 C 887.86 517.47 890.24 526.18 896.19 532.79 C 903.61 539.69 912.70 544.49 922.25 547.74 C 929.75 550.32 936.91 554.04 944.67 555.82 C 945.64 553.99 946.38 552.04 947.50 550.29 C 951.63 547.44 956.76 549.76 961.15 550.60 C 964.19 550.37 960.75 544.56 963.93 543.91 C 966.09 543.54 968.32 543.73 970.55 543.53 C 972.27 541.39 973.04 538.13 975.87 537.16 C 982.26 536.84 988.70 537.35 995.10 536.49 C 985.03 532.04 974.12 530.05 963.86 526.14 C 954.03 523.03 945.09 517.78 936.03 512.98 C 932.64 511.13 929.26 509.26 926.36 506.70 C 923.58 504.29 920.31 501.83 919.94 497.79 C 919.02 495.65 918.46 492.93 920.08 491.04 Z" />
<path fill="#000000" stroke="#000000" stroke-width="0.09375" opacity="1.00" d=" M 1069.30 504.40 C 1071.55 504.09 1075.16 503.88 1076.65 506.24 C 1081.31 511.84 1079.38 519.81 1081.20 526.40 C 1084.67 532.53 1090.75 537.04 1093.20 543.80 C 1096.49 553.12 1098.66 563.66 1095.39 573.32 C 1093.71 578.50 1090.88 583.28 1087.33 587.38 C 1084.55 590.41 1079.22 590.72 1076.22 587.89 C 1073.30 585.48 1073.19 581.36 1071.99 578.06 L 1071.30 578.37 C 1068.93 582.42 1067.31 586.88 1064.76 590.83 C 1062.57 594.02 1057.47 593.53 1054.74 591.35 C 1052.37 588.03 1052.47 583.62 1051.44 579.84 C 1049.61 582.61 1048.18 585.65 1046.10 588.25 C 1044.71 590.15 1041.46 589.72 1039.66 589.90 C 1037.56 588.60 1035.65 586.65 1035.26 584.14 C 1034.62 579.14 1034.67 574.09 1036.02 569.24 C 1032.09 570.56 1027.69 568.94 1025.29 565.65 C 1021.80 559.42 1022.38 551.96 1022.63 545.09 C 1022.76 541.75 1020.99 538.47 1021.66 535.21 C 1025.87 534.02 1029.60 537.23 1031.82 540.50 C 1033.96 546.40 1031.41 552.85 1033.02 558.84 C 1036.20 558.45 1038.45 555.49 1041.50 554.53 C 1043.99 553.35 1046.83 555.49 1047.76 557.78 C 1047.72 560.49 1047.53 563.30 1047.24 566.03 C 1049.50 563.36 1050.95 559.81 1053.96 557.87 C 1056.61 555.98 1061.00 557.71 1061.48 560.98 C 1061.97 565.10 1061.63 569.32 1061.87 573.49 L 1062.63 573.78 C 1065.16 570.00 1067.42 565.52 1071.76 563.57 C 1075.20 561.91 1079.06 564.56 1080.78 567.52 C 1081.85 570.99 1081.39 574.76 1082.61 578.22 C 1085.71 572.42 1087.29 565.72 1086.95 559.16 C 1086.03 550.61 1082.42 541.96 1075.65 536.43 C 1072.93 534.12 1069.89 531.82 1066.25 531.40 C 1060.92 530.45 1055.65 531.43 1050.37 531.89 C 1049.08 530.99 1047.98 529.83 1047.17 528.51 C 1046.58 526.74 1047.23 524.84 1048.19 523.34 C 1055.07 519.33 1063.43 521.63 1070.98 521.90 C 1070.23 516.06 1067.95 510.44 1068.48 504.44 L 1069.30 504.40 M 1061.27 575.27 L 1061.27 575.73 L 1061.73 575.73 L 1061.73 575.27 L 1061.27 575.27 Z" />
</g>
</svg>
