<svg width="225" height="74" viewBox="0 0 225 74" fill="none" xmlns="http://www.w3.org/2000/svg">
<path d="M63.7756 35.9081C63.7666 36.7063 63.7043 37.8466 63.5843 38.9854C63.2018 42.6046 62.3476 46.1113 61.0464 49.5114C60.9954 49.6448 60.9384 49.7767 60.8701 49.9019C60.7929 50.0443 60.6623 50.0972 60.5041 50.057C60.4118 50.0331 60.3196 50.0026 60.2356 49.9601C59.5614 49.6217 58.8639 49.3377 58.1686 49.0463C58.0696 49.0046 57.9706 48.9614 57.8746 48.9129C57.7509 48.8503 57.7074 48.7422 57.7366 48.6133C57.7599 48.5097 57.7974 48.4083 57.8364 48.3085C58.4131 46.8439 58.8961 45.3489 59.2824 43.8232C59.6154 42.5063 59.8718 41.1744 60.0541 39.8276C60.2716 38.2193 60.3811 36.6034 60.3699 34.9816C60.3556 32.9253 60.1276 30.8944 59.5779 28.9052C58.8684 26.3406 57.6474 24.0435 55.9479 21.9902C52.8691 18.2696 48.9721 15.8377 44.2831 14.6392C43.2136 14.3657 42.1329 14.1548 41.0379 14.0288C39.7021 13.8753 38.3626 13.8269 37.0164 13.9111C32.9529 14.1645 29.2869 15.5291 25.9284 17.7718C24.9616 18.4172 24.0361 19.1148 23.2036 19.9294C21.4164 21.6764 20.1616 23.7484 19.3726 26.1058C18.9894 27.2498 18.7351 28.4222 18.5694 29.6169C18.2821 31.6896 18.2131 33.7705 18.3046 35.8566C18.3444 36.7726 18.4404 37.6849 18.5634 38.5949C18.8671 40.845 19.4064 43.0369 20.1601 45.1782C20.5876 46.393 21.0819 47.5803 21.6376 48.7422C22.1379 49.7894 22.7499 50.7695 23.4459 51.6989C23.5171 51.7943 23.5929 51.8874 23.6611 51.9851C23.8644 52.2742 23.8494 52.4009 23.5899 52.6268C23.5449 52.6663 23.4976 52.7028 23.4504 52.7393C22.9044 53.1679 22.3749 53.6165 21.8664 54.0883C21.7966 54.1532 21.7254 54.2188 21.6481 54.2739C21.4599 54.4073 21.3279 54.3984 21.1719 54.2374C21.0894 54.1524 21.0181 54.0548 20.9469 53.9586C19.6914 52.2638 18.6466 50.4475 17.8006 48.5186C16.9314 46.5361 16.2969 44.4806 15.8454 42.3669C15.6286 41.3533 15.4396 40.3352 15.2919 39.3096C15.1464 38.296 15.0316 37.2779 14.9626 36.2554C14.8914 35.197 14.8276 34.1387 14.8569 33.0774C14.9086 31.2052 15.0834 29.3456 15.4884 27.5122C16.1859 24.358 17.4931 21.4864 19.5181 18.9494C21.1411 16.9154 23.1166 15.2936 25.3831 14.0139C26.9716 13.1173 28.6546 12.4346 30.3834 11.8585C31.7251 11.4113 33.0916 11.0573 34.4844 10.8128C35.3814 10.6556 36.2851 10.5453 37.1956 10.4886C37.8069 10.4506 38.4174 10.429 39.0294 10.4357C39.9414 10.4462 40.8489 10.517 41.7541 10.6325C45.5889 11.1251 49.1469 12.3929 52.4334 14.4104C55.2751 16.1545 57.6804 18.3665 59.5861 21.1003C61.2714 23.5181 62.4234 26.1691 63.0721 29.0371C63.3563 30.2937 63.5499 31.5637 63.6571 32.8471C63.7336 33.7519 63.7808 34.6552 63.7756 35.9081Z" fill="#E1252D"/>
<path d="M55.926 57.2156C55.8465 57.3289 55.746 57.3468 55.6605 57.3856C54.6255 57.8544 53.589 58.3187 52.5525 58.7845C52.4873 58.8136 52.422 58.8449 52.3552 58.8717C52.203 58.9321 52.0515 58.9306 51.903 58.859C51.8602 58.8382 51.816 58.8195 51.7732 58.7979C49.7572 57.7992 47.6745 56.9533 45.5828 56.1267C43.6365 55.3576 41.6843 54.6048 39.7703 53.7582C38.1938 53.0606 36.6472 52.3033 35.1787 51.3993C33.891 50.6063 32.6805 49.7119 31.5877 48.667C29.301 46.481 27.8235 43.853 27.2062 40.7533C26.9257 39.3439 26.8462 37.9204 26.8537 36.4887C26.862 34.8863 27.0375 33.3032 27.4402 31.7507C27.819 30.2907 28.356 28.8918 29.1825 27.6188C30.7207 25.2494 32.8672 23.7126 35.6265 23.0448C36.8332 22.7527 38.061 22.6781 39.3045 22.7855C40.698 22.9054 42.0525 23.182 43.362 23.6664C44.5222 24.0964 45.6277 24.636 46.6215 25.3799C47.721 26.2027 48.5753 27.2364 49.2525 28.4207C49.8232 29.4187 50.2425 30.4807 50.601 31.5689C51.0315 32.8754 51.3022 34.214 51.4162 35.5846C51.429 35.7389 51.4575 35.8932 51.4515 36.0467C51.4425 36.2934 51.318 36.394 51.075 36.35C50.7922 36.2994 50.5133 36.23 50.2335 36.1652C49.7318 36.0482 49.2277 35.9468 48.717 35.8768C48.6697 35.8701 48.6232 35.8574 48.576 35.847C48.1147 35.7471 47.949 35.5779 47.883 35.1061C47.826 34.6932 47.754 34.2833 47.6625 33.8764C47.403 32.7211 47.0137 31.6099 46.4947 30.5463C45.8235 29.1698 44.79 28.1412 43.4137 27.457C42.315 26.9107 41.1615 26.5194 39.9457 26.3294C39.018 26.1841 38.085 26.1766 37.1497 26.2906C36.2985 26.3942 35.481 26.6104 34.7085 26.9808C33.2782 27.6672 32.2612 28.7568 31.6095 30.1841C30.9727 31.5786 30.5287 33.0312 30.297 34.5479C30.1162 35.7322 30.0705 36.9194 30.183 38.1097C30.3442 39.8187 30.7837 41.4584 31.4962 43.022C32.0625 44.2644 32.8762 45.3317 33.8625 46.2745C34.6875 47.0623 35.6017 47.7331 36.5685 48.3375C38.0317 49.252 39.5782 50.007 41.1615 50.6912C42.753 51.3791 44.3752 51.9918 45.99 52.6245C47.7938 53.3311 49.599 54.0339 51.366 54.8292C52.6327 55.3986 53.8755 56.0135 55.0785 56.7058C55.3605 56.8646 55.6327 57.0375 55.926 57.2156Z" fill="#E1252D"/>
<path d="M38.1496 4.57391C39.3759 4.5836 40.5481 4.65292 41.7181 4.77291C44.3154 5.03824 46.8451 5.59722 49.3051 6.46401C52.5151 7.59539 55.4596 9.21345 58.1671 11.2608C58.4341 11.4628 58.6959 11.6715 58.9599 11.8779C59.0161 11.9219 59.0739 11.9659 59.1256 12.0151C59.2959 12.1783 59.3019 12.3057 59.1489 12.4771C59.1091 12.5219 59.0634 12.5606 59.0191 12.6001C58.4461 13.1084 57.9046 13.648 57.3691 14.1951C57.3024 14.2636 57.2349 14.3322 57.1614 14.3926C57.0174 14.5118 56.8591 14.5342 56.6979 14.4291C56.5974 14.3643 56.5014 14.2927 56.4076 14.2189C55.1754 13.2478 53.8764 12.3743 52.5039 11.6096C50.2546 10.3567 47.8726 9.44598 45.3639 8.85421C44.2906 8.60081 43.2106 8.38765 42.1194 8.23933C41.2291 8.11785 40.3336 8.03661 39.4344 7.99487C38.4624 7.94941 37.4919 7.96059 36.5214 8.01052C35.8509 8.04481 35.1841 8.11636 34.5181 8.20505C33.5319 8.33697 32.5576 8.52478 31.5924 8.76552C29.1969 9.36325 26.9356 10.2897 24.7839 11.4896C23.1691 12.3907 21.6496 13.4237 20.2621 14.646C17.7061 16.8983 15.7914 19.6015 14.4871 22.7341C13.7934 24.4006 13.2961 26.1252 12.9624 27.8968C12.8386 28.5519 12.7276 29.2093 12.6646 29.8733C12.6234 30.3071 12.5109 30.3757 12.0721 30.2803C11.2539 30.1022 10.4349 29.9255 9.61588 29.7481C9.54613 29.7332 9.47413 29.722 9.40813 29.6967C9.25063 29.6363 9.20038 29.567 9.21613 29.3971C9.23788 29.1601 9.27013 28.9238 9.30688 28.6883C9.61138 26.72 10.0554 24.7844 10.7349 22.9077C11.9544 19.5389 13.7446 16.5093 16.1926 13.8731C17.8044 12.138 19.6269 10.6541 21.6376 9.39903C24.3211 7.72507 27.1794 6.43793 30.2424 5.61138C31.3531 5.31177 32.4774 5.0837 33.6159 4.91303C35.1346 4.6872 36.6639 4.58584 38.1496 4.57391Z" fill="#E1252D"/>
<path d="M57.6068 36.2509C57.5723 39.5996 56.757 42.9326 55.1018 46.0577C54.2378 47.6884 53.178 49.185 51.9548 50.569C51.876 50.6577 51.7913 50.7449 51.6968 50.8164C51.5348 50.9387 51.4035 50.9312 51.24 50.8015C51.1748 50.7501 51.1155 50.689 51.0615 50.6256C50.5883 50.0704 50.079 49.5487 49.5638 49.0329C49.4963 48.9651 49.428 48.8973 49.3703 48.822C49.2533 48.6707 49.245 48.5507 49.3568 48.3979C49.4618 48.2533 49.5848 48.1214 49.701 47.9858C50.691 46.8283 51.543 45.5792 52.2353 44.2242C53.0603 42.6091 53.6138 40.9046 53.9093 39.1189C54.1215 37.8332 54.1905 36.5379 54.129 35.2373C54.0383 33.3152 53.7488 31.4251 53.1323 29.5931C52.3853 27.3743 51.1913 25.4321 49.5023 23.7961C47.9295 22.2735 46.086 21.1987 44.0063 20.5138C42.9698 20.1724 41.9085 19.9362 40.827 19.7834C39.792 19.6366 38.7533 19.5605 37.7085 19.5941C36.216 19.641 34.7521 19.8743 33.3286 20.3267C32.1818 20.6912 31.1828 21.318 30.2753 22.0953C29.5111 22.7504 28.8136 23.4712 28.1641 24.2381C28.0328 24.3931 27.8993 24.5459 27.7651 24.6987C27.5498 24.9446 27.2948 25.0117 26.9926 24.8671C26.9281 24.8358 26.8606 24.8097 26.7968 24.7769C26.1068 24.4199 25.4153 24.0644 24.7276 23.703C24.4658 23.5658 24.4456 23.4905 24.6196 23.2632C25.7408 21.7994 26.9506 20.4184 28.4033 19.2632C29.8568 18.1072 31.4911 17.3209 33.2948 16.8692C34.2953 16.6188 35.3048 16.4198 36.3308 16.3162C37.5135 16.197 38.6985 16.185 39.8865 16.276C42.1755 16.4511 44.37 17.0064 46.4903 17.8679C48.2895 18.5991 49.9418 19.5717 51.4118 20.8417C53.1285 22.3249 54.4508 24.1047 55.4348 26.1371C56.1548 27.6248 56.6648 29.1824 57.0203 30.7923C57.2933 32.0273 57.4643 33.2749 57.5445 34.5375C57.576 35.0495 57.591 35.5608 57.6068 36.2509Z" fill="#E1252D"/>
<path d="M49.9029 59.93C49.0742 60.3146 48.2942 60.6768 47.5134 61.0391C47.0469 61.2552 46.5774 61.4654 46.1147 61.689C45.8739 61.8052 45.6437 61.8201 45.3879 61.73C43.4034 61.0286 41.3852 60.4287 39.3857 59.7713C38.1587 59.3681 36.9324 58.9604 35.7437 58.4551C32.9739 57.2768 30.5484 55.5968 28.4724 53.4325C25.6164 50.455 23.4669 47.0295 22.0104 43.1785C21.4397 41.6693 21.0549 40.1101 20.8307 38.5137C20.6769 37.4151 20.5959 36.3105 20.6154 35.2008C20.6672 32.2926 21.3032 29.5148 22.5294 26.872C22.7252 26.4509 22.7979 26.4308 23.2089 26.6469C23.8967 27.0084 24.5874 27.3654 25.2759 27.7261C25.3817 27.7813 25.4904 27.8342 25.5857 27.905C25.6899 27.9825 25.7289 28.0973 25.6847 28.224C25.6419 28.3477 25.5902 28.4684 25.5384 28.5884C25.0397 29.7526 24.6512 30.9503 24.3917 32.1897C24.1419 33.3837 24.0257 34.5889 24.0324 35.8082C24.0452 38.2722 24.5867 40.6259 25.5369 42.8901C26.6417 45.524 28.0997 47.95 29.9634 50.1263C31.3884 51.7906 33.0272 53.2089 34.9434 54.2978C36.2267 55.0267 37.5842 55.5916 38.9859 56.0477C40.1342 56.4211 41.2929 56.764 42.4457 57.1247C44.7182 57.8365 46.9682 58.6086 49.1544 59.5544C49.3914 59.658 49.6382 59.7467 49.9029 59.93Z" fill="#E1252D"/>
<path d="M44.8576 35.5086C44.8448 36.8278 44.6138 38.138 44.2568 39.4281C44.0633 40.128 43.8346 40.8174 43.5736 41.4964C43.5353 41.5962 43.4978 41.6976 43.4438 41.7893C43.3561 41.9391 43.2421 41.9801 43.0786 41.9294C42.9878 41.9011 42.8993 41.8631 42.8123 41.8228C42.1493 41.518 41.4721 41.2474 40.7918 40.9836C40.6921 40.9448 40.5893 40.9083 40.4971 40.8554C40.3508 40.7712 40.3006 40.6557 40.3373 40.4932C40.3606 40.3896 40.4026 40.2897 40.4393 40.1883C40.7498 39.3253 41.0341 38.454 41.2163 37.5529C41.3731 36.7801 41.4676 36.0012 41.4571 35.2127C41.4526 34.8549 41.4121 34.5002 41.3288 34.1506C41.1676 33.4709 40.7461 33.0446 40.0613 32.8858C39.6046 32.78 39.1478 32.71 38.6731 32.7972C38.1526 32.8933 37.7333 33.1378 37.4063 33.5447C37.2488 33.7415 37.1243 33.9583 37.0178 34.1857C36.7156 34.8311 36.5341 35.5123 36.5176 36.2196C36.4621 38.5964 37.0486 40.7921 38.4518 42.7455C38.7953 43.2232 39.1883 43.654 39.6661 44.0051C40.5136 44.6274 41.4721 44.965 42.5183 44.9315C44.6836 44.8622 46.2421 43.8299 47.1511 41.8705C47.4721 41.1774 47.6881 40.4447 47.8201 39.6905C47.8343 39.6085 47.8531 39.5265 47.8778 39.4468C47.9318 39.2724 48.0068 39.2209 48.1981 39.2329C48.2813 39.2381 48.3646 39.2537 48.4463 39.2709C49.1956 39.4296 49.9441 39.5891 50.6933 39.7501C50.8103 39.7755 50.9281 39.8008 51.0406 39.8388C51.1381 39.8716 51.1996 39.9469 51.1996 40.0542C51.1996 40.1369 51.1996 40.2219 51.1838 40.3031C50.9138 41.7296 50.4661 43.0913 49.6966 44.336C48.5168 46.2447 46.8173 47.4566 44.6506 48.0387C43.7048 48.2928 42.7411 48.3927 41.7653 48.3107C40.3763 48.1937 39.1058 47.7316 37.9546 46.9498C37.0343 46.3245 36.2588 45.5508 35.6078 44.655C34.4611 43.0772 33.7096 41.3279 33.3316 39.4192C33.1688 38.5994 33.0668 37.7721 33.0578 36.9373C33.0443 35.6293 33.2221 34.3489 33.6998 33.1214C33.9391 32.508 34.2413 31.9274 34.6538 31.4094C35.4091 30.4606 36.3841 29.8338 37.5616 29.5491C39.1711 29.1593 40.7273 29.3367 42.2003 30.1044C43.0996 30.5724 43.7731 31.2596 44.1931 32.1867C44.5051 32.8762 44.7091 33.5916 44.7968 34.3437C44.8411 34.7245 44.8523 35.1039 44.8576 35.5086Z" fill="#E1252D"/>
<path d="M32.8486 67.8057C32.7428 67.9272 32.6333 67.9481 32.5366 67.9913C31.5548 68.4318 30.5716 68.8685 29.5883 69.3068C29.5336 69.3314 29.4781 69.3537 29.4248 69.3798C29.2831 69.4491 29.1473 69.4402 29.0161 69.3545C28.9763 69.3284 28.9358 69.3023 28.8961 69.2755C26.0521 67.3742 23.4098 65.2314 21.0188 62.7876C16.1281 57.7888 12.7088 51.9396 10.7401 45.2505C10.2323 43.5244 9.82585 41.7744 9.5296 39.9998C9.35335 38.943 9.21985 37.8802 9.1351 36.8107C9.05335 35.7888 8.99935 34.7663 9.00985 33.7415C9.01135 33.623 9.0166 33.5022 9.04285 33.3882C9.07735 33.2399 9.18085 33.1683 9.3331 33.1765C9.4276 33.1818 9.52135 33.2071 9.61435 33.2287C10.2316 33.3748 10.8443 33.5373 11.4728 33.6312C11.5793 33.6468 11.6866 33.6587 11.7931 33.6766C12.2333 33.7489 12.4208 33.9442 12.4568 34.3869C12.4883 34.7789 12.5063 35.1717 12.5288 35.5638C12.5768 36.3843 12.6503 37.2019 12.7313 38.0195C12.8138 38.8491 12.9188 39.6756 13.0493 40.4984C13.4206 42.8327 14.0018 45.1111 14.8688 47.3158C16.8271 52.2959 19.6808 56.6999 23.4466 60.5196C26.0093 63.1192 28.8683 65.3514 31.9801 67.2669C32.2658 67.4443 32.5493 67.6209 32.8486 67.8057Z" fill="#E1252D"/>
<path d="M69.0293 35.9834C69.0428 36.8673 68.9903 37.8668 68.9438 38.8662C68.8951 39.9007 68.8066 40.933 68.6956 41.9637C68.5351 43.4558 68.3334 44.9412 68.1211 46.4266C67.9359 47.7227 67.7633 49.021 67.5848 50.3179C67.5428 50.6242 67.5001 50.9312 67.4566 51.2376C67.4333 51.4038 67.3839 51.5618 67.3239 51.7183C67.1993 52.0432 66.9818 52.2884 66.6826 52.4636C66.5896 52.518 66.4943 52.5724 66.3931 52.6067C65.7901 52.8087 65.2268 53.1023 64.6508 53.3647C64.5203 53.4243 64.3883 53.4809 64.2533 53.5286C64.1311 53.5711 64.0411 53.5152 64.0163 53.3878C64.0028 53.3177 63.9998 53.2462 63.9968 53.1746C63.9593 52.2683 63.9871 51.365 64.1176 50.4662C64.3141 49.1112 64.5173 47.7577 64.7018 46.4013C64.8721 45.1506 65.0363 43.9 65.1668 42.6442C65.2823 41.5307 65.3858 40.4165 65.4563 39.2992C65.5448 37.9078 65.5981 36.5155 65.5703 35.1211C65.5418 33.7393 65.4631 32.3612 65.3063 30.9868C65.0213 28.4923 64.4746 26.0604 63.5671 23.7134C62.7571 21.6206 61.6801 19.6783 60.2476 17.9388C60.0961 17.7547 59.9363 17.5758 59.7826 17.3932C59.7211 17.3202 59.6581 17.2471 59.6086 17.1666C59.4961 16.984 59.5028 16.835 59.6341 16.6717C59.7016 16.589 59.7811 16.5145 59.8613 16.4437C60.3991 15.9682 60.9143 15.4696 61.4131 14.9538C61.7813 14.5737 61.9021 14.5737 62.2486 14.9665C63.3271 16.188 64.2721 17.5042 65.0881 18.9129C66.3511 21.0944 67.2578 23.4168 67.8856 25.8502C68.2486 27.2588 68.5156 28.6846 68.6948 30.1275C68.8373 31.2745 68.9326 32.4245 68.9806 33.5798C69.0121 34.3415 69.0353 35.1032 69.0293 35.9834Z" fill="#E1252D"/>
<path d="M41.0266 64.0121C40.9351 64.1128 40.8166 64.1418 40.7116 64.1895C39.6443 64.674 38.5733 65.1495 37.5098 65.6421C37.2481 65.7636 37.0246 65.7703 36.7636 65.6354C34.5968 64.513 32.4323 63.3853 30.3496 62.1123C28.7341 61.1256 27.1726 60.062 25.7206 58.8472C25.1243 58.3485 24.5536 57.8209 23.9716 57.3051C23.9363 57.2738 23.9026 57.2388 23.8741 57.2008C23.7953 57.0957 23.7931 56.9749 23.8726 56.8706C23.9153 56.814 23.9693 56.7648 24.0226 56.7178C24.6526 56.167 25.2878 55.6207 25.9126 55.064C26.1856 54.821 26.3138 54.8516 26.5501 55.0789C28.2743 56.7357 30.2108 58.113 32.2568 59.3465C33.9166 60.3482 35.6356 61.2426 37.3666 62.1146C38.2853 62.5774 39.2078 63.0306 40.1281 63.4897C40.4371 63.6432 40.7416 63.8064 41.0266 64.0121Z" fill="#E1252D"/>
<path d="M98.4359 21.2397L91.0154 22.6252C90.8647 22.1639 90.5849 21.7696 90.1747 21.4439C89.7644 21.1182 89.3069 20.9483 88.8014 20.9349H84.6404C84.0937 20.9349 83.6632 21.1383 83.3489 21.546C83.0347 21.9537 82.8772 22.4054 82.8772 22.901C82.8772 23.3966 83.0339 23.8483 83.3489 24.256C83.6632 24.6636 84.0937 24.8671 84.6404 24.8671H88.4534C90.0794 24.8671 91.5517 25.1317 92.8709 25.6616C94.1894 26.1915 95.2657 26.8973 96.0997 27.7798C96.9329 28.663 97.5757 29.6535 98.0264 30.7535C98.4772 31.8536 98.7164 33.0014 98.7442 34.1961C98.7577 35.405 98.5462 36.5662 98.1089 37.6797C97.6717 38.7932 97.0394 39.8016 96.2129 40.7049C95.3857 41.6082 94.3094 42.3311 92.9842 42.8745C91.6582 43.4178 90.1829 43.6891 88.5562 43.6891H85.5427C83.1509 43.6891 80.9849 42.9661 79.0447 41.5195C77.1037 40.0729 75.9149 38.223 75.4777 35.9685L82.9807 34.5822C83.1307 35.0443 83.4112 35.4348 83.8214 35.7538C84.2317 36.0728 84.6892 36.2532 85.1947 36.2934H89.3557C89.9024 36.2934 90.3329 36.0862 90.6472 35.6718C90.9614 35.2574 91.1152 34.8058 91.1084 34.3169C91.1017 33.8279 90.9442 33.3763 90.6367 32.9619C90.3292 32.5475 89.9017 32.3403 89.3557 32.3403H85.5427C82.1122 32.3403 79.4339 31.2745 77.5072 29.1422C75.9764 27.472 75.1702 25.4484 75.0884 23.0717C75.0067 20.7635 75.6284 18.7399 76.9537 17.0011C78.4709 14.9642 80.5889 13.8164 83.3084 13.5586L84.3952 13.5176H88.4542C90.8452 13.5176 93.0082 14.2405 94.9417 15.6872C96.8752 17.1346 98.0399 18.9851 98.4359 21.2397Z" fill="white"/>
<path d="M115.532 13.2545C118.347 13.2545 120.94 13.9402 123.311 15.3116C125.682 16.6837 127.555 18.5469 128.928 20.9028C130.301 23.2588 130.988 25.8293 130.988 28.613C130.988 30.6775 130.582 32.6533 129.769 34.5405C128.956 36.4283 127.862 38.0546 126.489 39.4192C125.116 40.7839 123.472 41.8706 121.559 42.6785C119.646 43.4864 117.637 43.8903 115.533 43.8903C113.455 43.8903 111.467 43.4864 109.568 42.6785C107.668 41.8706 106.032 40.7839 104.659 39.4192C103.285 38.0546 102.192 36.4283 101.379 34.5405C100.566 32.6533 100.159 30.6768 100.159 28.613C100.159 26.5217 100.566 24.5288 101.379 22.6342C102.192 20.7396 103.285 19.1067 104.659 17.7353C106.032 16.3639 107.668 15.2743 109.568 14.4656C111.466 13.6585 113.455 13.2545 115.532 13.2545ZM115.532 36.0281C117.65 36.0281 119.444 35.3014 120.913 33.8488C122.381 32.3955 123.116 30.6507 123.116 28.6138C123.116 26.5359 122.381 24.7673 120.913 23.3072C119.443 21.8479 117.65 21.1175 115.532 21.1175C113.482 21.1175 111.726 21.8509 110.264 23.3176C108.802 24.7844 108.071 26.55 108.071 28.6138C108.071 30.6373 108.805 32.3791 110.275 33.8384C111.743 35.2984 113.496 36.0281 115.532 36.0281Z" fill="white"/>
<path d="M147.1 43.5043H139.515V21.1376H132.136V13.6823H154.479V21.1376H147.1V43.5043Z" fill="white"/>
<path d="M164.975 43.5243H157.082V13.6212H164.975V43.5243Z" fill="white"/>
<path d="M191.704 43.4835H184.079V40.3465C184.079 39.6675 183.888 39.1107 183.505 38.6762L178.073 32.4634H175.408V43.4835H167.557V13.6615H175.408V24.7226H177.807L183.505 18.4285C183.888 18.0074 184.079 17.4581 184.079 16.7784V13.6615H191.704V16.9006C191.704 19.4809 190.987 21.5111 189.552 22.9913L184.345 28.5729L189.552 34.1336C190.987 35.6138 191.704 37.644 191.704 40.2242V43.4835Z" fill="white"/>
<path d="M216.568 21.2397L209.148 22.6252C208.997 22.1639 208.717 21.7696 208.307 21.4439C207.897 21.1182 207.439 20.9483 206.934 20.9349H202.773C202.226 20.9349 201.796 21.1383 201.481 21.546C201.167 21.9537 201.01 22.4054 201.01 22.901C201.01 23.3966 201.166 23.8483 201.481 24.256C201.796 24.6636 202.226 24.8671 202.773 24.8671H206.586C208.212 24.8671 209.684 25.1317 211.003 25.6616C212.322 26.1915 213.398 26.8973 214.232 27.7798C215.065 28.663 215.708 29.6535 216.159 30.7535C216.61 31.8536 216.849 33.0014 216.877 34.1961C216.89 35.405 216.679 36.5662 216.241 37.6797C215.804 38.7932 215.172 39.8016 214.345 40.7049C213.518 41.6082 212.442 42.3311 211.117 42.8745C209.791 43.4178 208.315 43.6891 206.689 43.6891H203.675C201.283 43.6891 199.117 42.9661 197.177 41.5195C195.236 40.0729 194.047 38.223 193.61 35.9685L201.113 34.5822C201.263 35.0443 201.544 35.4348 201.954 35.7538C202.364 36.0728 202.822 36.2532 203.327 36.2934H207.488C208.035 36.2934 208.465 36.0862 208.78 35.6718C209.094 35.2574 209.248 34.8058 209.241 34.3169C209.234 33.8279 209.077 33.3763 208.769 32.9619C208.462 32.5475 208.034 32.3403 207.488 32.3403H203.675C200.245 32.3403 197.566 31.2745 195.64 29.1422C194.109 27.472 193.303 25.4484 193.221 23.0717C193.139 20.7635 193.761 18.7399 195.086 17.0011C196.603 14.9642 198.721 13.8164 201.441 13.5586L202.528 13.5176H206.587C208.978 13.5176 211.141 14.2405 213.074 15.6872C215.008 17.1346 216.172 18.9851 216.568 21.2397Z" fill="white"/>
<path d="M75.855 48.752H77.721V56.568H81.516V48.752H83.382V56.568H84.6277V60.2759H82.7617V57.9968H75.855V48.752Z" fill="white"/>
<path d="M89.8792 51.1266H91.7385V57.9961H89.8792V53.806L89.841 53.8L87.5857 57.9968H85.7197V51.1273H87.5857V55.3048L87.624 55.3115L89.8792 51.1266Z" fill="white"/>
<path d="M92.8177 54.6191C92.8177 53.5354 93.0539 52.6611 93.5272 51.9971C93.9997 51.3323 94.6642 50.9999 95.5207 50.9999C95.8657 50.9999 96.1747 51.0677 96.4469 51.2033C96.7192 51.339 96.9577 51.5313 97.1624 51.7809V48.0917H99.0284V51.8063C99.2287 51.5484 99.4672 51.3494 99.7439 51.2093C100.021 51.0699 100.338 50.9999 100.696 50.9999C101.552 50.9999 102.217 51.3323 102.692 51.9971C103.167 52.6619 103.405 53.5354 103.405 54.6191V54.7525C103.405 55.7683 103.168 56.5852 102.695 57.203C102.223 57.8209 101.56 58.1302 100.708 58.1302C100.346 58.1302 100.027 58.0654 99.7499 57.9364C99.4732 57.8075 99.2324 57.6197 99.0277 57.3745V60.6382H97.1617V57.3871C96.9532 57.6323 96.7109 57.8179 96.4364 57.9424C96.1619 58.0669 95.8522 58.1295 95.5064 58.1295C94.6589 58.1295 93.9989 57.8209 93.5257 57.2023C93.0532 56.5844 92.8162 55.7676 92.8162 54.7517V54.6191H92.8177ZM94.6837 54.7525C94.6837 55.3577 94.7849 55.8347 94.9874 56.1842C95.1899 56.5338 95.5207 56.7082 95.9812 56.7082C96.2534 56.7082 96.4882 56.6582 96.6839 56.5591C96.8797 56.46 97.0394 56.3124 97.1632 56.1179V53.0636C97.0394 52.8601 96.8812 52.7036 96.6869 52.5941C96.4934 52.4838 96.2617 52.4294 95.9939 52.4294C95.5379 52.4294 95.2057 52.6313 94.9972 53.0353C94.7887 53.4393 94.6844 53.9677 94.6844 54.6191V54.7525H94.6837ZM101.533 54.6191C101.533 53.9714 101.425 53.4445 101.21 53.0383C100.995 52.6321 100.662 52.4286 100.21 52.4286C99.9292 52.4286 99.6907 52.486 99.4949 52.6C99.2992 52.7141 99.1432 52.8773 99.0284 53.089V56.1112C99.1432 56.3057 99.2992 56.454 99.4949 56.5554C99.6907 56.6567 99.9337 56.7074 100.223 56.7074C100.679 56.7074 101.011 56.5315 101.22 56.1805C101.428 55.8294 101.533 55.3532 101.533 54.7517V54.6191Z" fill="white"/>
<path d="M110.809 54.7525C110.809 55.7684 110.573 56.5852 110.1 57.2031C109.627 57.8209 108.967 58.1302 108.119 58.1302C107.757 58.1302 107.435 58.0639 107.155 57.9305C106.873 57.7971 106.633 57.6011 106.432 57.3432V60.6382H104.573V51.1266H106.253L106.362 51.939C106.567 51.6386 106.813 51.4068 107.1 51.2436C107.387 51.0804 107.723 50.9991 108.106 50.9991C108.963 50.9991 109.627 51.3316 110.1 51.9964C110.572 52.6612 110.809 53.5347 110.809 54.6184V54.7525ZM108.944 54.6191C108.944 53.9714 108.835 53.4467 108.619 53.0443C108.401 52.6425 108.069 52.4413 107.622 52.4413C107.341 52.4413 107.101 52.4987 106.903 52.6127C106.705 52.7268 106.549 52.89 106.434 53.1017V56.1112C106.549 56.3057 106.705 56.454 106.903 56.5554C107.101 56.6568 107.345 56.7074 107.635 56.7074C108.086 56.7074 108.418 56.5316 108.628 56.1805C108.839 55.8295 108.945 55.3532 108.945 54.7518V54.6191H108.944Z" fill="white"/>
<path d="M111.672 54.4983C111.672 53.4743 111.959 52.6351 112.534 51.9807C113.11 51.3271 113.906 50.9999 114.924 50.9999C115.946 50.9999 116.747 51.3256 117.326 51.9777C117.905 52.6299 118.195 53.4698 118.195 54.4983V54.6318C118.195 55.6647 117.907 56.5055 117.33 57.1554C116.752 57.8053 115.955 58.1302 114.937 58.1302C113.915 58.1302 113.116 57.8053 112.538 57.1554C111.961 56.5055 111.673 55.6647 111.673 54.6318V54.4983H111.672ZM113.531 54.6318C113.531 55.2586 113.642 55.7609 113.863 56.1395C114.085 56.5181 114.442 56.7074 114.937 56.7074C115.418 56.7074 115.771 56.5166 115.994 56.1358C116.218 55.7549 116.329 55.2533 116.329 54.631V54.4976C116.329 53.8879 116.216 53.3908 115.99 53.0055C115.765 52.6202 115.409 52.4279 114.923 52.4279C114.442 52.4279 114.089 52.6217 113.866 53.0085C113.642 53.396 113.53 53.8924 113.53 54.4976V54.6318H113.531Z" fill="white"/>
<path d="M119.441 57.9968V51.1273H122.329C123.249 51.1273 123.965 51.2883 124.479 51.6095C124.992 51.9315 125.249 52.4092 125.249 53.0443C125.249 53.3662 125.141 53.6517 124.927 53.9014C124.711 54.151 124.406 54.3418 124.01 54.473C124.534 54.5744 124.931 54.7659 125.202 55.0476C125.473 55.3294 125.608 55.658 125.608 56.0352C125.608 56.6828 125.364 57.1718 124.876 57.5019C124.389 57.8321 123.689 57.9968 122.777 57.9968H119.441ZM121.307 53.9267H122.38C122.725 53.9267 122.98 53.8715 123.144 53.762C123.308 53.6517 123.39 53.487 123.39 53.2664C123.39 53.0167 123.302 52.8333 123.128 52.7171C122.953 52.6008 122.687 52.5427 122.329 52.5427H121.307V53.9267ZM121.307 55.1333V56.5874H122.776C123.104 56.5874 123.347 56.5271 123.505 56.4063C123.662 56.2856 123.741 56.1067 123.741 55.8697C123.741 55.6327 123.665 55.4508 123.514 55.3234C123.363 55.1967 123.117 55.1326 122.776 55.1326H121.307V55.1333Z" fill="white"/>
<path d="M128.84 53.3491H130.137C131.066 53.3491 131.796 53.5615 132.329 53.9871C132.861 54.4126 133.127 54.9701 133.127 55.6603C133.127 56.3586 132.861 56.9228 132.329 57.3521C131.796 57.7814 131.066 57.9968 130.137 57.9968H126.968V51.1273H128.84V53.3491ZM128.84 54.7711V56.5807H130.137C130.516 56.5807 130.799 56.4965 130.987 56.3266C131.174 56.1574 131.268 55.939 131.268 55.6729C131.268 55.4151 131.174 55.1997 130.987 55.0283C130.799 54.8568 130.516 54.7711 130.137 54.7711H128.84ZM135.644 57.9968H133.778V51.1273H135.644V57.9968Z" fill="white"/>
<path d="M140.608 58.1302C139.577 58.1302 138.772 57.8157 138.193 57.1874C137.614 56.5591 137.325 55.749 137.325 54.7584V54.5043C137.325 53.4758 137.606 52.6336 138.168 51.977C138.73 51.3211 139.503 50.9954 140.487 50.9991C141.415 50.9991 142.128 51.2816 142.624 51.8465C143.121 52.4115 143.368 53.1724 143.368 54.1287V55.0871H139.247L139.228 55.1251C139.258 55.5947 139.401 55.9763 139.659 56.2677C139.917 56.5599 140.299 56.7059 140.806 56.7059C141.223 56.7059 141.577 56.6634 141.869 56.5792C142.161 56.495 142.462 56.3653 142.773 56.1917L143.278 57.3342C143.001 57.5586 142.626 57.7471 142.153 57.8992C141.682 58.0534 141.166 58.1302 140.608 58.1302ZM140.487 52.4286C140.112 52.4286 139.823 52.5568 139.621 52.8124C139.419 53.0688 139.297 53.4087 139.254 53.8313L139.267 53.8633H141.541V53.724C141.541 53.3222 141.458 53.0055 141.292 52.7744C141.126 52.5434 140.858 52.4286 140.487 52.4286Z" fill="white"/>
<path d="M153.566 52.5427H151.355V57.9968H149.483V52.5427H147.304V51.1266H153.566V52.5427Z" fill="white"/>
<path d="M157.432 58.1302C156.4 58.1302 155.596 57.8157 155.017 57.1874C154.438 56.5591 154.148 55.7497 154.148 54.7592V54.5051C154.148 53.4766 154.429 52.6344 154.991 51.9778C155.554 51.3219 156.326 50.9962 157.31 50.9999C158.239 50.9999 158.951 51.2824 159.448 51.8473C159.944 52.4123 160.192 53.1732 160.192 54.1294V55.0879H156.07L156.051 55.1259C156.081 55.5955 156.224 55.9771 156.482 56.2685C156.74 56.5606 157.122 56.7067 157.629 56.7067C158.047 56.7067 158.401 56.6642 158.692 56.58C158.984 56.4958 159.286 56.3661 159.596 56.1925L160.101 57.335C159.824 57.5593 159.449 57.7479 158.977 57.8999C158.505 58.0535 157.989 58.1302 157.432 58.1302ZM157.31 52.4287C156.935 52.4287 156.646 52.5568 156.445 52.8125C156.242 53.0689 156.12 53.4087 156.077 53.8313L156.09 53.8634H158.365V53.724C158.365 53.3223 158.281 53.0055 158.116 52.7745C157.949 52.5434 157.681 52.4287 157.31 52.4287Z" fill="white"/>
<path d="M163.878 53.3111H163.916L164.977 51.1273H167.085L165.002 54.5244L167.156 57.9976H165.053L163.922 55.7184L162.791 57.9976H160.683L162.836 54.5244L160.747 51.1273H162.842L163.878 53.3111Z" fill="white"/>
<path d="M173.935 57.9968H172.069V55.3301H169.794V57.9968H167.928V51.1273H169.794V53.9081H172.069V51.1273H173.935V57.9968Z" fill="white"/>
<path d="M175.059 54.4983C175.059 53.4743 175.346 52.6351 175.922 51.9807C176.497 51.3263 177.293 50.9999 178.311 50.9999C179.333 50.9999 180.134 51.3256 180.713 51.9777C181.292 52.6299 181.583 53.4698 181.583 54.4983V54.6318C181.583 55.6647 181.294 56.5055 180.717 57.1554C180.14 57.8053 179.342 58.1302 178.325 58.1302C177.302 58.1302 176.503 57.8053 175.925 57.1554C175.348 56.5055 175.06 55.6647 175.06 54.6318V54.4983H175.059ZM176.918 54.6318C176.918 55.2586 177.029 55.7609 177.251 56.1395C177.472 56.5181 177.83 56.7074 178.324 56.7074C178.805 56.7074 179.158 56.5166 179.381 56.1358C179.605 55.7549 179.717 55.2533 179.717 54.631V54.4976C179.717 53.8879 179.603 53.3908 179.378 53.0055C179.152 52.6202 178.796 52.4279 178.31 52.4279C177.829 52.4279 177.476 52.6217 177.253 53.0085C177.029 53.396 176.918 53.8924 176.918 54.4976V54.6318H176.918Z" fill="white"/>
<path d="M188.617 51.1265V57.996H186.758V52.5613H185.096V54.0534C185.096 55.4076 184.888 56.4041 184.47 57.0405C184.052 57.6778 183.339 57.996 182.33 57.996H182.03L182.01 56.536L182.208 56.5293C182.634 56.5293 182.911 56.3556 183.038 56.0083C183.166 55.661 183.23 55.0096 183.23 54.0526V51.1258H188.617V51.1265Z" fill="white"/>
<path d="M189.684 54.4983C189.684 53.4743 189.971 52.6351 190.547 51.9807C191.122 51.3263 191.918 50.9999 192.936 50.9999C193.958 50.9999 194.759 51.3256 195.338 51.9777C195.917 52.6299 196.208 53.4698 196.208 54.4983V54.6318C196.208 55.6647 195.919 56.5055 195.342 57.1554C194.765 57.8053 193.967 58.1302 192.95 58.1302C191.927 58.1302 191.128 57.8053 190.55 57.1554C189.973 56.5055 189.685 55.6647 189.685 54.6318V54.4983H189.684ZM191.543 54.6318C191.543 55.2586 191.654 55.7609 191.876 56.1395C192.097 56.5181 192.455 56.7074 192.949 56.7074C193.43 56.7074 193.783 56.5166 194.006 56.1358C194.23 55.7549 194.342 55.2533 194.342 54.631V54.4976C194.342 53.8879 194.228 53.3908 194.003 53.0055C193.777 52.6202 193.421 52.4279 192.935 52.4279C192.454 52.4279 192.101 52.6217 191.878 53.0085C191.654 53.396 191.543 53.8924 191.543 54.4976V54.6318H191.543Z" fill="white"/>
<path d="M202.047 52.562H199.191V57.9968H197.325V51.1273H202.046V52.562H202.047Z" fill="white"/>
<path d="M206.948 51.1266H208.807V57.9961H206.948V53.806L206.909 53.8L204.654 57.9968H202.788V51.1273H204.654V55.3048L204.692 55.3115L206.948 51.1266Z" fill="white"/>
<path d="M214.334 51.1266H216.193V57.9961H214.334V53.806L214.295 53.8L212.04 57.9968H210.174V51.1273H212.04V55.3048L212.078 55.3115L214.334 51.1266Z" fill="white"/>
</svg>
