<svg width="18" height="18" viewBox="0 0 18 18" fill="none" xmlns="http://www.w3.org/2000/svg">
<path d="M18 0.9C18 0.402944 17.5971 0 17.1 0H10.7051C10.208 0 9.80505 0.402944 9.80505 0.9V9.36392C9.80505 9.86098 10.208 10.2639 10.7051 10.2639H17.1C17.5971 10.2639 18 9.86098 18 9.36392V0.9ZM0.9 0C0.402943 0 0 0.402944 0 0.9V5.33244C0 5.8295 0.402944 6.23244 0.9 6.23244H7.29494C7.792 6.23244 8.19494 5.8295 8.19494 5.33244V0.899999C8.19494 0.402943 7.792 0 7.29494 0H0.9ZM8.19494 8.63608C8.19494 8.13902 7.792 7.73608 7.29494 7.73608H0.9C0.402943 7.73608 0 8.13902 0 8.63608V17.1C0 17.5971 0.402944 18 0.9 18H7.29494C7.792 18 8.19494 17.5971 8.19494 17.1V8.63608ZM18 12.6676C18 12.1705 17.5971 11.7676 17.1 11.7676H10.7051C10.208 11.7676 9.80505 12.1705 9.80505 12.6676V17.1C9.80505 17.5971 10.208 18 10.7051 18H17.1C17.5971 18 18 17.5971 18 17.1V12.6676Z" fill="#5F6368"/>
</svg>
