<svg width="31" height="31" viewBox="0 0 31 31" fill="none" xmlns="http://www.w3.org/2000/svg">
<path d="M30.0312 15.0156C30.0312 23.3104 23.3079 30.0312 15.0156 30.0312C6.72331 30.0312 0 23.3104 0 15.0156C0 6.72573 6.72331 0 15.0156 0C23.3079 0 30.0312 6.72573 30.0312 15.0156ZM15.4186 4.96484C12.1189 4.96484 10.0145 6.35482 8.36189 8.82519C8.14779 9.14524 8.21942 9.57688 8.52627 9.80956L10.6272 11.4026C10.9423 11.6415 11.3913 11.5847 11.6362 11.2741C12.7178 9.9022 13.4594 9.10667 15.1057 9.10667C16.3426 9.10667 17.8726 9.90274 17.8726 11.1022C17.8726 12.0089 17.1241 12.4746 15.9028 13.1593C14.4785 13.9578 12.5938 14.9515 12.5938 17.4375V17.6797C12.5938 18.0809 12.9191 18.4062 13.3203 18.4062H16.7109C17.1122 18.4062 17.4375 18.0809 17.4375 17.6797V17.599C17.4375 15.8757 22.4742 15.8039 22.4742 11.1406C22.4742 7.62879 18.8314 4.96484 15.4186 4.96484ZM15.0156 19.9805C13.4799 19.9805 12.2305 21.2299 12.2305 22.7656C12.2305 24.3013 13.4799 25.5508 15.0156 25.5508C16.5514 25.5508 17.8008 24.3013 17.8008 22.7656C17.8008 21.2299 16.5514 19.9805 15.0156 19.9805Z" fill="white"/>
</svg>
