<?xml version="1.0" encoding="utf-8"?>
<!-- Generator: Adobe Illustrator 25.2.1, SVG Export Plug-In . SVG Version: 6.00 Build 0)  -->
<svg version="1.1" id="Слой_1" xmlns="http://www.w3.org/2000/svg" xmlns:xlink="http://www.w3.org/1999/xlink" x="0px" y="0px"
	 viewBox="0 0 3000 992.88" style="enable-background:new 0 0 3000 992.88;" xml:space="preserve">
<style type="text/css">
	.st0{fill:#E1252D;}
	.st1{fill:#1D1D1B;}
</style>
<g>
	<path class="st0" d="M850.34,481.79c-0.12,10.71-0.95,26.01-2.55,41.29c-5.1,48.56-16.49,95.61-33.84,141.23
		c-0.68,1.79-1.44,3.56-2.35,5.24c-1.03,1.91-2.77,2.62-4.88,2.08c-1.23-0.32-2.46-0.73-3.58-1.3c-8.99-4.54-18.29-8.35-27.56-12.26
		c-1.32-0.56-2.64-1.14-3.92-1.79c-1.65-0.84-2.23-2.29-1.84-4.02c0.31-1.39,0.81-2.75,1.33-4.09
		c7.69-19.65,14.13-39.71,19.28-60.18c4.44-17.67,7.86-35.54,10.29-53.61c2.9-21.58,4.36-43.26,4.21-65.02
		c-0.19-27.59-3.23-54.84-10.56-81.53c-9.46-34.41-25.74-65.23-48.4-92.78c-41.05-49.92-93.01-82.55-155.53-98.63
		c-14.26-3.67-28.67-6.5-43.27-8.19c-17.81-2.06-35.67-2.71-53.62-1.58c-54.18,3.4-103.06,21.71-147.84,51.8
		c-12.89,8.66-25.23,18.02-36.33,28.95c-23.83,23.44-40.56,51.24-51.08,82.87c-5.11,15.35-8.5,31.08-10.71,47.11
		c-3.83,27.81-4.75,55.73-3.53,83.72c0.53,12.29,1.81,24.53,3.45,36.74c4.05,30.19,11.24,59.6,21.29,88.33
		c5.7,16.3,12.29,32.23,19.7,47.82c6.67,14.05,14.83,27.2,24.11,39.67c0.95,1.28,1.96,2.53,2.87,3.84c2.71,3.88,2.51,5.58-0.95,8.61
		c-0.6,0.53-1.23,1.02-1.86,1.51c-7.28,5.75-14.34,11.77-21.12,18.1c-0.93,0.87-1.88,1.75-2.91,2.49c-2.51,1.79-4.27,1.67-6.35-0.49
		c-1.1-1.14-2.05-2.45-3-3.74c-16.74-22.74-30.67-47.11-41.95-72.99c-11.59-26.6-20.05-54.18-26.07-82.54
		c-2.89-13.6-5.41-27.26-7.38-41.02c-1.94-13.6-3.47-27.26-4.39-40.98c-0.95-14.2-1.8-28.4-1.41-42.64
		c0.69-25.12,3.02-50.07,8.42-74.67c9.3-42.32,26.73-80.85,53.73-114.89c21.64-27.29,47.98-49.05,78.2-66.22
		c21.18-12.03,43.62-21.19,66.67-28.92c17.89-6,36.11-10.75,54.68-14.03c11.96-2.11,24.01-3.59,36.15-4.35
		c8.15-0.51,16.29-0.8,24.45-0.71c12.16,0.14,24.26,1.09,36.33,2.64c51.13,6.61,98.57,23.62,142.39,50.69
		c37.89,23.4,69.96,53.08,95.37,89.76c22.47,32.44,37.83,68.01,46.48,106.49c3.79,16.86,6.37,33.9,7.8,51.12
		C849.78,452.86,850.41,464.98,850.34,481.79z"/>
	<path class="st0" d="M745.68,767.68c-1.06,1.52-2.4,1.76-3.54,2.28c-13.8,6.29-27.62,12.52-41.44,18.77
		c-0.87,0.39-1.74,0.81-2.63,1.17c-2.03,0.81-4.05,0.79-6.03-0.17c-0.57-0.28-1.16-0.53-1.73-0.82
		c-26.88-13.4-54.65-24.75-82.54-35.84c-25.95-10.32-51.98-20.42-77.5-31.78c-21.02-9.36-41.64-19.52-61.22-31.65
		c-17.17-10.64-33.31-22.64-47.88-36.66c-30.49-29.33-50.19-64.59-58.42-106.18c-3.74-18.91-4.8-38.01-4.7-57.22
		c0.11-21.5,2.45-42.74,7.82-63.57c5.05-19.59,12.21-38.36,23.23-55.44c20.51-31.79,49.13-52.41,85.92-61.37
		c16.09-3.92,32.46-4.92,49.04-3.48c18.58,1.61,36.64,5.32,54.1,11.82c15.47,5.77,30.21,13.01,43.46,22.99
		c14.66,11.04,26.05,24.91,35.08,40.8c7.61,13.39,13.2,27.64,17.98,42.24c5.74,17.53,9.35,35.49,10.87,53.88
		c0.17,2.07,0.55,4.14,0.47,6.2c-0.12,3.31-1.78,4.66-5.02,4.07c-3.77-0.68-7.49-1.61-11.22-2.48c-6.69-1.57-13.41-2.93-20.22-3.87
		c-0.63-0.09-1.25-0.26-1.88-0.4c-6.15-1.34-8.36-3.61-9.24-9.94c-0.76-5.54-1.72-11.04-2.94-16.5
		c-3.46-15.5-8.65-30.41-15.57-44.68c-8.95-18.47-22.73-32.27-41.08-41.45c-14.65-7.33-30.03-12.58-46.24-15.13
		c-12.37-1.95-24.81-2.05-37.28-0.52c-11.35,1.39-22.25,4.29-32.55,9.26c-19.07,9.21-32.63,23.83-41.32,42.98
		c-8.49,18.71-14.41,38.2-17.5,58.55c-2.41,15.89-3.02,31.82-1.52,47.79c2.15,22.93,8.01,44.93,17.51,65.91
		c7.55,16.67,18.4,30.99,31.55,43.64c11,10.57,23.19,19.57,36.08,27.68c19.51,12.27,40.13,22.4,61.24,31.58
		c21.22,9.23,42.85,17.45,64.38,25.94c24.05,9.48,48.12,18.91,71.68,29.58c16.89,7.64,33.46,15.89,49.5,25.18
		C738.14,762.97,741.77,765.29,745.68,767.68z"/>
	<path class="st0" d="M508.66,61.37c16.35,0.13,31.98,1.06,47.58,2.67c34.63,3.56,68.36,11.06,101.16,22.69
		c42.8,15.18,82.06,36.89,118.16,64.36c3.56,2.71,7.05,5.51,10.57,8.28c0.75,0.59,1.52,1.18,2.21,1.84c2.27,2.19,2.35,3.9,0.31,6.2
		c-0.53,0.6-1.14,1.12-1.73,1.65c-7.64,6.82-14.86,14.06-22,21.4c-0.89,0.92-1.79,1.84-2.77,2.65c-1.92,1.6-4.03,1.9-6.18,0.49
		c-1.34-0.87-2.62-1.83-3.87-2.82c-16.43-13.03-33.75-24.75-52.05-35.01c-29.99-16.81-61.75-29.03-95.2-36.97
		c-14.31-3.4-28.71-6.26-43.26-8.25c-11.87-1.63-23.81-2.72-35.8-3.28c-12.96-0.61-25.9-0.46-38.84,0.21
		c-8.94,0.46-17.83,1.42-26.71,2.61c-13.15,1.77-26.14,4.29-39.01,7.52c-31.94,8.02-62.09,20.45-90.78,36.55
		c-21.53,12.09-41.79,25.95-60.29,42.35c-34.08,30.22-59.61,66.49-77,108.52c-9.25,22.36-15.88,45.5-20.33,69.27
		c-1.65,8.79-3.13,17.61-3.97,26.52c-0.55,5.82-2.05,6.74-7.9,5.46c-10.91-2.39-21.83-4.76-32.75-7.14
		c-0.93-0.2-1.89-0.35-2.77-0.69c-2.1-0.81-2.77-1.74-2.56-4.02c0.29-3.18,0.72-6.35,1.21-9.51c4.06-26.41,9.98-52.38,19.04-77.56
		c16.26-45.2,40.13-85.85,72.77-121.22c21.49-23.28,45.79-43.19,72.6-60.03c35.78-22.46,73.89-39.73,114.73-50.82
		c14.81-4.02,29.8-7.08,44.98-9.37C468.46,62.89,488.85,61.53,508.66,61.37z"/>
	<path class="st0" d="M768.09,486.39c-0.46,44.93-11.33,89.65-33.4,131.58c-11.52,21.88-25.65,41.96-41.96,60.53
		c-1.05,1.19-2.18,2.36-3.44,3.32c-2.16,1.64-3.91,1.54-6.09-0.2c-0.87-0.69-1.66-1.51-2.38-2.36c-6.31-7.45-13.1-14.45-19.97-21.37
		c-0.9-0.91-1.81-1.82-2.58-2.83c-1.56-2.03-1.67-3.64-0.18-5.69c1.4-1.94,3.04-3.71,4.59-5.53c13.2-15.53,24.56-32.29,33.79-50.47
		c11-21.67,18.38-44.54,22.32-68.5c2.83-17.25,3.75-34.63,2.93-52.08c-1.21-25.79-5.07-51.15-13.29-75.73
		c-9.96-29.77-25.88-55.83-48.4-77.78c-20.97-20.43-45.55-34.85-73.28-44.04c-13.82-4.58-27.97-7.75-42.39-9.8
		c-13.8-1.97-27.65-2.99-41.58-2.54c-19.9,0.63-39.42,3.76-58.4,9.83c-15.29,4.89-28.61,13.3-40.71,23.73
		c-10.19,8.79-19.49,18.46-28.15,28.75c-1.75,2.08-3.53,4.13-5.32,6.18c-2.87,3.3-6.27,4.2-10.3,2.26
		c-0.86-0.42-1.76-0.77-2.61-1.21c-9.2-4.79-18.42-9.56-27.59-14.41c-3.49-1.84-3.76-2.85-1.44-5.9
		c14.95-19.64,31.08-38.17,50.45-53.67c19.38-15.51,41.17-26.06,65.22-32.12c13.34-3.36,26.8-6.03,40.48-7.42
		c15.77-1.6,31.57-1.76,47.41-0.54c30.52,2.35,59.78,9.8,88.05,21.36c23.99,9.81,46.02,22.86,65.62,39.9
		c22.89,19.9,40.52,43.78,53.64,71.05c9.6,19.96,16.4,40.86,21.14,62.46c3.64,16.57,5.92,33.31,6.99,50.25
		C767.68,470.27,767.88,477.13,768.09,486.39z"/>
	<path class="st0" d="M665.37,804.1c-11.05,5.16-21.45,10.02-31.86,14.88c-6.22,2.9-12.48,5.72-18.65,8.72
		c-3.21,1.56-6.28,1.76-9.69,0.55c-26.46-9.41-53.37-17.46-80.03-26.28c-16.36-5.41-32.71-10.88-48.56-17.66
		c-36.93-15.81-69.27-38.35-96.95-67.39c-38.08-39.95-66.74-85.91-86.16-137.58c-7.61-20.25-12.74-41.17-15.73-62.59
		c-2.05-14.74-3.13-29.56-2.87-44.45c0.69-39.02,9.17-76.29,25.52-111.75c2.61-5.65,3.58-5.92,9.06-3.02
		c9.17,4.85,18.38,9.64,27.56,14.48c1.41,0.74,2.86,1.45,4.13,2.4c1.39,1.04,1.91,2.58,1.32,4.28c-0.57,1.66-1.26,3.28-1.95,4.89
		c-6.65,15.62-11.83,31.69-15.29,48.32c-3.33,16.02-4.88,32.19-4.79,48.55c0.17,33.06,7.39,64.64,20.06,95.02
		c14.73,35.34,34.17,67.89,59.02,97.09c19,22.33,40.85,41.36,66.4,55.97c17.11,9.78,35.21,17.36,53.9,23.48
		c15.31,5.01,30.76,9.61,46.13,14.45c30.3,9.55,60.3,19.91,89.45,32.6C658.55,800.45,661.84,801.64,665.37,804.1z"/>
	<path class="st0" d="M598.1,476.43c-0.17,17.7-3.25,35.28-8.01,52.59c-2.58,9.39-5.63,18.64-9.11,27.75
		c-0.51,1.34-1.01,2.7-1.73,3.93c-1.17,2.01-2.69,2.56-4.87,1.88c-1.21-0.38-2.39-0.89-3.55-1.43c-8.84-4.09-17.87-7.72-26.94-11.26
		c-1.33-0.52-2.7-1.01-3.93-1.72c-1.95-1.13-2.62-2.68-2.13-4.86c0.31-1.39,0.87-2.73,1.36-4.09c4.14-11.58,7.93-23.27,10.36-35.36
		c2.09-10.37,3.35-20.82,3.21-31.4c-0.06-4.8-0.6-9.56-1.71-14.25c-2.15-9.12-7.77-14.84-16.9-16.97
		c-6.09-1.42-12.18-2.36-18.51-1.19c-6.94,1.29-12.53,4.57-16.89,10.03c-2.1,2.64-3.76,5.55-5.18,8.6
		c-4.03,8.66-6.45,17.8-6.67,27.29c-0.74,31.89,7.08,61.35,25.79,87.56c4.58,6.41,9.82,12.19,16.19,16.9
		c11.3,8.35,24.08,12.88,38.03,12.43c28.87-0.93,49.65-14.78,61.77-41.07c4.28-9.3,7.16-19.13,8.92-29.25
		c0.19-1.1,0.44-2.2,0.77-3.27c0.72-2.34,1.72-3.03,4.27-2.87c1.11,0.07,2.22,0.28,3.31,0.51c9.99,2.13,19.97,4.27,29.96,6.43
		c1.56,0.34,3.13,0.68,4.63,1.19c1.3,0.44,2.12,1.45,2.12,2.89c0,1.11,0,2.25-0.21,3.34c-3.6,19.14-9.57,37.41-19.83,54.11
		c-15.73,25.61-38.39,41.87-67.28,49.68c-12.61,3.41-25.46,4.75-38.47,3.65c-18.52-1.57-35.46-7.77-50.81-18.26
		c-12.27-8.39-22.61-18.77-31.29-30.79c-15.29-21.17-25.31-44.64-30.35-70.25c-2.17-11-3.53-22.1-3.65-33.3
		c-0.18-17.55,2.19-34.73,8.56-51.2c3.19-8.23,7.22-16.02,12.72-22.97c10.07-12.73,23.07-21.14,38.77-24.96
		c21.46-5.23,42.21-2.85,61.85,7.45c11.99,6.28,20.97,15.5,26.57,27.94c4.16,9.25,6.88,18.85,8.05,28.94
		C597.88,465.91,598.03,471,598.1,476.43z"/>
	<path class="st0" d="M437.98,909.77c-1.41,1.63-2.87,1.91-4.16,2.49c-13.09,5.91-26.2,11.77-39.31,17.65
		c-0.73,0.33-1.47,0.63-2.18,0.98c-1.89,0.93-3.7,0.81-5.45-0.34c-0.53-0.35-1.07-0.7-1.6-1.06
		c-37.92-25.51-73.15-54.26-105.03-87.05c-65.21-67.07-110.8-145.55-137.05-235.3c-6.77-23.16-12.19-46.64-16.14-70.45
		c-2.35-14.18-4.13-28.44-5.26-42.79c-1.09-13.71-1.81-27.43-1.67-41.18c0.02-1.59,0.09-3.21,0.44-4.74
		c0.46-1.99,1.84-2.95,3.87-2.84c1.26,0.07,2.51,0.41,3.75,0.7c8.23,1.96,16.4,4.14,24.78,5.4c1.42,0.21,2.85,0.37,4.27,0.61
		c5.87,0.97,8.37,3.59,8.85,9.53c0.42,5.26,0.66,10.53,0.96,15.79c0.64,11.01,1.62,21.98,2.7,32.95c1.1,11.13,2.5,22.22,4.24,33.26
		c4.95,31.32,12.7,61.89,24.26,91.47c26.11,66.82,64.16,125.91,114.37,177.16c34.17,34.88,72.29,64.83,113.78,90.53
		C430.21,904.92,433.99,907.29,437.98,909.77z"/>
	<path class="st0" d="M920.39,482.8c0.18,11.86-0.52,25.27-1.14,38.68c-0.65,13.88-1.83,27.73-3.31,41.56
		c-2.14,20.02-4.83,39.95-7.66,59.88c-2.47,17.39-4.77,34.81-7.15,52.21c-0.56,4.11-1.13,8.23-1.71,12.34
		c-0.31,2.23-0.97,4.35-1.77,6.45c-1.66,4.36-4.56,7.65-8.55,10c-1.24,0.73-2.51,1.46-3.86,1.92c-8.04,2.71-15.55,6.65-23.23,10.17
		c-1.74,0.8-3.5,1.56-5.3,2.2c-1.63,0.57-2.83-0.18-3.16-1.89c-0.18-0.94-0.22-1.9-0.26-2.86c-0.5-12.16-0.13-24.28,1.61-36.34
		c2.62-18.18,5.33-36.34,7.79-54.54c2.27-16.78,4.46-33.56,6.2-50.41c1.54-14.94,2.92-29.89,3.86-44.88
		c1.18-18.67,1.89-37.35,1.52-56.06c-0.38-18.54-1.43-37.03-3.52-55.47c-3.8-33.47-11.09-66.1-23.19-97.59
		c-10.8-28.08-25.16-54.14-44.26-77.48c-2.02-2.47-4.15-4.87-6.2-7.32c-0.82-0.98-1.66-1.96-2.32-3.04
		c-1.5-2.45-1.41-4.45,0.34-6.64c0.9-1.11,1.96-2.11,3.03-3.06c7.17-6.38,14.04-13.07,20.69-19.99c4.91-5.1,6.52-5.1,11.14,0.17
		c14.38,16.39,26.98,34.05,37.86,52.95c16.84,29.27,28.93,60.43,37.3,93.08c4.84,18.9,8.4,38.03,10.79,57.39
		c1.9,15.39,3.17,30.82,3.81,46.32C920.16,460.77,920.47,470.99,920.39,482.8z"/>
	<path class="st0" d="M547.02,858.87c-1.22,1.35-2.8,1.74-4.2,2.38c-14.23,6.5-28.51,12.88-42.69,19.49
		c-3.49,1.63-6.47,1.72-9.95-0.09c-28.89-15.06-57.75-30.19-85.52-47.27c-21.54-13.24-42.36-27.51-61.72-43.81
		c-7.95-6.69-15.56-13.77-23.32-20.69c-0.47-0.42-0.92-0.89-1.3-1.4c-1.05-1.41-1.08-3.03-0.02-4.43c0.57-0.76,1.29-1.42,2-2.05
		c8.4-7.39,16.87-14.72,25.2-22.19c3.64-3.26,5.35-2.85,8.5,0.2c22.99,22.23,48.81,40.71,76.09,57.26
		c22.13,13.44,45.05,25.44,68.13,37.14c12.25,6.21,24.55,12.29,36.82,18.45C539.16,853.92,543.22,856.11,547.02,858.87z"/>
</g>
<g>
	<path class="st1" d="M1312.48,284.98l-98.94,18.59c-2.01-6.19-5.74-11.48-11.21-15.85c-5.47-4.37-11.57-6.65-18.31-6.83h-55.48
		c-7.29,0-13.03,2.73-17.22,8.2c-4.19,5.47-6.29,11.53-6.29,18.18c0,6.65,2.09,12.71,6.29,18.18c4.19,5.47,9.93,8.2,17.22,8.2h50.84
		c21.68,0,41.31,3.55,58.9,10.66c17.58,7.11,31.93,16.58,43.05,28.42c11.11,11.85,19.68,25.14,25.69,39.9
		c6.01,14.76,9.2,30.16,9.57,46.19c0.18,16.22-2.64,31.8-8.47,46.74c-5.83,14.94-14.26,28.47-25.28,40.59
		c-11.03,12.12-25.38,21.82-43.05,29.11c-17.68,7.29-37.35,10.93-59.04,10.93h-40.18c-31.89,0-60.77-9.7-86.64-29.11
		c-25.88-19.41-41.73-44.23-47.56-74.48L1106.41,464c2,6.2,5.74,11.44,11.21,15.72c5.47,4.28,11.57,6.7,18.31,7.24h55.48
		c7.29,0,13.03-2.78,17.22-8.34c4.19-5.56,6.24-11.62,6.15-18.18c-0.09-6.56-2.19-12.62-6.29-18.18c-4.1-5.56-9.8-8.34-17.08-8.34
		h-50.84c-45.74,0-81.45-14.3-107.14-42.91c-20.41-22.41-31.16-49.56-32.25-81.45c-1.09-30.97,7.2-58.12,24.87-81.45
		c20.23-27.33,48.47-42.73,84.73-46.19l14.49-0.55h54.12c31.88,0,60.72,9.7,86.5,29.11C1291.67,229.9,1307.2,254.73,1312.48,284.98z
		"/>
	<path class="st1" d="M1540.43,177.84c37.53,0,72.11,9.2,103.72,27.6c31.61,18.41,56.58,43.41,74.89,75.02
		c18.31,31.61,27.47,66.1,27.47,103.45c0,27.7-5.42,54.21-16.26,79.53c-10.84,25.33-25.42,47.15-43.73,65.46
		c-18.31,18.31-40.22,32.89-65.73,43.73c-25.51,10.84-52.3,16.26-80.35,16.26c-27.7,0-54.21-5.42-79.53-16.26
		c-25.33-10.84-47.15-25.42-65.46-43.73c-18.31-18.31-32.89-40.13-43.73-65.46c-10.84-25.32-16.26-51.84-16.26-79.53
		c0-28.06,5.42-54.8,16.26-80.22c10.84-25.42,25.42-47.33,43.73-65.73c18.31-18.4,40.13-33.02,65.46-43.87
		C1486.22,183.26,1512.73,177.84,1540.43,177.84z M1540.43,483.4c28.24,0,52.16-9.75,71.74-29.24
		c19.58-19.5,29.38-42.91,29.38-70.24c0-27.88-9.8-51.61-29.38-71.2c-19.59-19.58-43.5-29.38-71.74-29.38
		c-27.33,0-50.75,9.84-70.24,29.52c-19.5,19.68-29.24,43.37-29.24,71.06c0,27.15,9.79,50.52,29.38,70.1
		C1489.91,473.61,1513.28,483.4,1540.43,483.4z"/>
	<path class="st1" d="M1961.33,583.71H1860.2v-300.1h-98.39V183.58h297.91v100.03h-98.39V583.71z"/>
	<path class="st1" d="M2199.66,583.98h-105.23V182.76h105.23V583.98z"/>
	<path class="st1" d="M2556.06,583.43h-101.67v-42.09c0-9.11-2.55-16.58-7.65-22.41l-72.43-83.36h-35.53v147.86h-104.68V183.3
		h104.68v148.41h31.98l75.98-84.45c5.1-5.65,7.65-13.02,7.65-22.14V183.3h101.67v43.46c0,34.62-9.57,61.86-28.7,81.72l-69.42,74.89
		l69.42,74.61c19.13,19.86,28.7,47.1,28.7,81.72V583.43z"/>
	<path class="st1" d="M2887.58,284.98l-98.94,18.59c-2.01-6.19-5.74-11.48-11.21-15.85c-5.47-4.37-11.57-6.65-18.31-6.83h-55.48
		c-7.29,0-13.03,2.73-17.22,8.2c-4.19,5.47-6.29,11.53-6.29,18.18c0,6.65,2.09,12.71,6.29,18.18c4.19,5.47,9.93,8.2,17.22,8.2h50.84
		c21.68,0,41.31,3.55,58.9,10.66c17.58,7.11,31.93,16.58,43.05,28.42c11.11,11.85,19.68,25.14,25.69,39.9
		c6.01,14.76,9.2,30.16,9.57,46.19c0.18,16.22-2.64,31.8-8.47,46.74c-5.83,14.94-14.26,28.47-25.28,40.59
		c-11.03,12.12-25.38,21.82-43.05,29.11c-17.68,7.29-37.35,10.93-59.04,10.93h-40.18c-31.89,0-60.77-9.7-86.64-29.11
		c-25.88-19.41-41.73-44.23-47.56-74.48L2681.51,464c2,6.2,5.74,11.44,11.21,15.72c5.47,4.28,11.57,6.7,18.31,7.24h55.48
		c7.29,0,13.02-2.78,17.22-8.34c4.19-5.56,6.24-11.62,6.15-18.18c-0.09-6.56-2.19-12.62-6.29-18.18c-4.1-5.56-9.8-8.34-17.08-8.34
		h-50.84c-45.74,0-81.45-14.3-107.14-42.91c-20.41-22.41-31.16-49.56-32.25-81.45c-1.09-30.97,7.2-58.12,24.87-81.45
		c20.23-27.33,48.47-42.73,84.73-46.19l14.49-0.55h54.12c31.88,0,60.72,9.7,86.5,29.11C2866.77,229.9,2882.3,254.73,2887.58,284.98z
		"/>
</g>
<g>
	<path class="st1" d="M1011.4,654.12h24.88v104.87h50.6V654.12h24.88v104.87h16.61v49.75h-24.88v-30.58h-92.09V654.12z"/>
	<path class="st1" d="M1198.39,685.98h24.79v92.17h-24.79v-56.22l-0.51-0.08l-30.07,56.31h-24.88v-92.17h24.88v56.05l0.51,0.09
		L1198.39,685.98z"/>
	<path class="st1" d="M1237.57,732.84c0-14.54,3.15-26.27,9.46-35.18c6.3-8.92,15.16-13.38,26.58-13.38c4.6,0,8.72,0.91,12.35,2.73
		c3.63,1.82,6.81,4.4,9.54,7.75v-49.5h24.88v49.84c2.67-3.46,5.85-6.13,9.54-8.01c3.69-1.87,7.92-2.81,12.69-2.81
		c11.42,0,20.29,4.46,26.62,13.38c6.33,8.92,9.5,20.64,9.5,35.18v1.79c0,13.63-3.15,24.59-9.46,32.88
		c-6.3,8.29-15.14,12.44-26.49,12.44c-4.83,0-9.09-0.87-12.78-2.6c-3.69-1.73-6.9-4.25-9.63-7.54v43.79h-24.88v-43.62
		c-2.78,3.29-6.01,5.78-9.67,7.45c-3.66,1.67-7.79,2.51-12.4,2.51c-11.3,0-20.1-4.14-26.41-12.44c-6.3-8.29-9.46-19.25-9.46-32.88
		V732.84z M1262.45,734.63c0,8.12,1.35,14.52,4.05,19.21c2.7,4.69,7.11,7.03,13.25,7.03c3.63,0,6.76-0.67,9.37-2
		c2.61-1.33,4.74-3.31,6.39-5.92v-40.98c-1.65-2.73-3.76-4.83-6.35-6.3c-2.58-1.48-5.67-2.21-9.24-2.21
		c-6.08,0-10.51,2.71-13.29,8.13c-2.78,5.42-4.17,12.51-4.17,21.25V734.63z M1353.77,732.84c0-8.69-1.43-15.76-4.3-21.21
		c-2.87-5.45-7.31-8.18-13.33-8.18c-3.75,0-6.93,0.77-9.54,2.3c-2.61,1.53-4.69,3.72-6.22,6.56v40.55c1.53,2.61,3.61,4.6,6.22,5.96
		c2.61,1.36,5.85,2.04,9.71,2.04c6.08,0,10.51-2.36,13.29-7.07c2.78-4.71,4.17-11.1,4.17-19.17V732.84z"/>
	<path class="st1" d="M1477.46,734.63c0,13.63-3.15,24.59-9.46,32.88c-6.3,8.29-15.11,12.44-26.41,12.44
		c-4.83,0-9.12-0.89-12.86-2.68c-3.75-1.79-6.96-4.42-9.63-7.88v44.21h-24.79V685.98h22.4l1.45,10.9c2.73-4.03,6.01-7.14,9.84-9.33
		c3.83-2.19,8.31-3.28,13.42-3.28c11.42,0,20.27,4.46,26.58,13.38c6.3,8.92,9.46,20.64,9.46,35.18V734.63z M1452.59,732.84
		c0-8.69-1.45-15.73-4.34-21.13c-2.9-5.39-7.33-8.09-13.29-8.09c-3.75,0-6.94,0.77-9.58,2.3c-2.64,1.53-4.73,3.72-6.26,6.56v40.38
		c1.53,2.61,3.62,4.6,6.26,5.96c2.64,1.36,5.89,2.04,9.75,2.04c6.02,0,10.44-2.36,13.25-7.07c2.81-4.71,4.22-11.1,4.22-19.17V732.84
		z"/>
	<path class="st1" d="M1488.96,731.22c0-13.74,3.83-25,11.5-33.78c7.67-8.77,18.29-13.16,31.86-13.16
		c13.63,0,24.31,4.37,32.03,13.12c7.72,8.75,11.59,20.02,11.59,33.82v1.79c0,13.86-3.85,25.14-11.54,33.86
		c-7.7,8.72-18.33,13.08-31.9,13.08c-13.63,0-24.29-4.36-31.99-13.08c-7.7-8.72-11.54-20-11.54-33.86V731.22z M1513.75,733.01
		c0,8.41,1.48,15.15,4.43,20.23c2.95,5.08,7.72,7.62,14.31,7.62c6.42,0,11.12-2.56,14.1-7.67s4.47-11.84,4.47-20.19v-1.79
		c0-8.18-1.51-14.85-4.52-20.02c-3.01-5.17-7.75-7.75-14.23-7.75c-6.42,0-11.12,2.6-14.1,7.79c-2.98,5.2-4.47,11.86-4.47,19.98
		V733.01z"/>
	<path class="st1" d="M1592.55,778.16v-92.17h38.5c12.27,0,21.82,2.16,28.67,6.47c6.84,4.32,10.27,10.73,10.27,19.25
		c0,4.32-1.44,8.15-4.3,11.5c-2.87,3.35-6.94,5.91-12.22,7.67c6.99,1.36,12.28,3.93,15.89,7.71c3.61,3.78,5.41,8.19,5.41,13.25
		c0,8.69-3.25,15.25-9.75,19.68c-6.5,4.43-15.83,6.64-27.99,6.64H1592.55z M1617.43,723.55h14.31c4.6,0,7.99-0.74,10.18-2.21
		c2.19-1.48,3.28-3.69,3.28-6.65c0-3.35-1.17-5.81-3.49-7.37c-2.33-1.56-5.88-2.34-10.65-2.34h-13.63V723.55z M1617.43,739.74v19.51
		h19.59c4.37,0,7.61-0.81,9.71-2.43c2.1-1.62,3.15-4.02,3.15-7.2c0-3.18-1.01-5.62-3.02-7.33c-2.02-1.7-5.3-2.56-9.84-2.56H1617.43z
		"/>
	<path class="st1" d="M1717.87,715.8h17.29c12.38,0,22.12,2.85,29.22,8.56c7.1,5.71,10.65,13.19,10.65,22.45
		c0,9.37-3.55,16.94-10.65,22.7c-7.1,5.76-16.84,8.65-29.22,8.65h-42.25v-92.17h24.96V715.8z M1717.87,734.88v24.28h17.29
		c5.05,0,8.83-1.13,11.33-3.41c2.5-2.27,3.75-5.2,3.75-8.77c0-3.46-1.25-6.35-3.75-8.65c-2.5-2.3-6.28-3.45-11.33-3.45H1717.87z
		 M1808.59,778.16h-24.88v-92.17h24.88V778.16z"/>
	<path class="st1" d="M1874.78,779.95c-13.75,0-24.48-4.22-32.2-12.65S1831,748,1831,734.71v-3.41c0-13.8,3.75-25.1,11.24-33.91
		c7.5-8.8,17.8-13.17,30.92-13.12c12.38,0,21.88,3.79,28.5,11.37c6.62,7.58,9.92,17.79,9.92,30.62v12.86h-54.95l-0.26,0.51
		c0.4,6.3,2.31,11.42,5.75,15.33c3.44,3.92,8.53,5.88,15.29,5.88c5.57,0,10.29-0.57,14.18-1.7c3.89-1.13,7.91-2.87,12.05-5.2
		l6.73,15.33c-3.69,3.01-8.69,5.54-14.99,7.58C1889.09,778.92,1882.22,779.95,1874.78,779.95z M1873.16,703.45
		c-5,0-8.85,1.72-11.54,5.15c-2.7,3.44-4.33,8-4.9,13.67l0.17,0.43h30.33v-1.87c0-5.39-1.11-9.64-3.32-12.74
		C1881.68,704.99,1878.11,703.45,1873.16,703.45z"/>
	<path class="st1" d="M2047.55,704.98h-29.48v73.18h-24.96v-73.18h-29.05v-19h83.49V704.98z"/>
	<path class="st1" d="M2099.09,779.95c-13.75,0-24.48-4.22-32.2-12.65s-11.58-19.29-11.58-32.58v-3.41c0-13.8,3.75-25.1,11.24-33.91
		c7.5-8.8,17.8-13.17,30.92-13.12c12.38,0,21.88,3.79,28.5,11.37c6.62,7.58,9.92,17.79,9.92,30.62v12.86h-54.95l-0.26,0.51
		c0.4,6.3,2.31,11.42,5.75,15.33c3.44,3.92,8.53,5.88,15.29,5.88c5.57,0,10.29-0.57,14.18-1.7c3.89-1.13,7.91-2.87,12.05-5.2
		l6.73,15.33c-3.69,3.01-8.69,5.54-14.99,7.58C2113.4,778.92,2106.52,779.95,2099.09,779.95z M2097.47,703.45
		c-5,0-8.85,1.72-11.54,5.15c-2.7,3.44-4.33,8-4.9,13.67l0.17,0.43h30.33v-1.87c0-5.39-1.11-9.64-3.32-12.74
		C2105.99,704.99,2102.41,703.45,2097.47,703.45z"/>
	<path class="st1" d="M2185.04,715.29h0.51l14.14-29.3h28.11l-27.77,45.58l28.71,46.6h-28.03l-15.08-30.58l-15.08,30.58h-28.11
		l28.71-46.6l-27.86-45.58h27.94L2185.04,715.29z"/>
	<path class="st1" d="M2319.13,778.16h-24.88v-35.78h-30.33v35.78h-24.88v-92.17h24.88v37.31h30.33v-37.31h24.88V778.16z"/>
	<path class="st1" d="M2334.12,731.22c0-13.74,3.83-25,11.5-33.78s18.29-13.16,31.86-13.16c13.63,0,24.31,4.37,32.03,13.12
		c7.72,8.75,11.59,20.02,11.59,33.82v1.79c0,13.86-3.85,25.14-11.54,33.86c-7.7,8.72-18.33,13.08-31.9,13.08
		c-13.63,0-24.29-4.36-31.99-13.08c-7.7-8.72-11.54-20-11.54-33.86V731.22z M2358.91,733.01c0,8.41,1.48,15.15,4.43,20.23
		c2.95,5.08,7.72,7.62,14.31,7.62c6.42,0,11.12-2.56,14.1-7.67s4.47-11.84,4.47-20.19v-1.79c0-8.18-1.51-14.85-4.52-20.02
		c-3.01-5.17-7.75-7.75-14.23-7.75c-6.42,0-11.12,2.6-14.1,7.79c-2.98,5.2-4.47,11.86-4.47,19.98V733.01z"/>
	<path class="st1" d="M2514.89,685.98v92.17h-24.79v-72.92h-22.15v20.02c0,18.17-2.78,31.54-8.35,40.08
		c-5.57,8.55-15.08,12.82-28.54,12.82h-4l-0.26-19.59l2.64-0.09c5.68,0,9.37-2.33,11.07-6.99c1.7-4.66,2.56-13.4,2.56-26.24v-39.27
		H2514.89z"/>
	<path class="st1" d="M2529.12,731.22c0-13.74,3.83-25,11.5-33.78s18.29-13.16,31.86-13.16c13.63,0,24.31,4.37,32.03,13.12
		c7.72,8.75,11.59,20.02,11.59,33.82v1.79c0,13.86-3.85,25.14-11.54,33.86c-7.7,8.72-18.33,13.08-31.9,13.08
		c-13.63,0-24.29-4.36-31.99-13.08c-7.7-8.72-11.54-20-11.54-33.86V731.22z M2553.91,733.01c0,8.41,1.48,15.15,4.43,20.23
		c2.95,5.08,7.72,7.62,14.31,7.62c6.42,0,11.12-2.56,14.1-7.67s4.47-11.84,4.47-20.19v-1.79c0-8.18-1.51-14.85-4.52-20.02
		c-3.01-5.17-7.75-7.75-14.23-7.75c-6.42,0-11.12,2.6-14.1,7.79c-2.98,5.2-4.47,11.86-4.47,19.98V733.01z"/>
	<path class="st1" d="M2693.96,705.24h-38.08v72.92H2631v-92.17h62.95V705.24z"/>
	<path class="st1" d="M2759.3,685.98h24.79v92.17h-24.79v-56.22l-0.51-0.08l-30.07,56.31h-24.88v-92.17h24.88v56.05l0.51,0.09
		L2759.3,685.98z"/>
	<path class="st1" d="M2857.78,685.98h24.79v92.17h-24.79v-56.22l-0.51-0.08l-30.07,56.31h-24.88v-92.17h24.88v56.05l0.51,0.09
		L2857.78,685.98z"/>
</g>
</svg>
